<?xml version="1.0" standalone="no"?>
<!DOCTYPE svg PUBLIC "-//W3C//DTD SVG 20010904//EN"
 "http://www.w3.org/TR/2001/REC-SVG-20010904/DTD/svg10.dtd">
<svg version="1.0" xmlns="http://www.w3.org/2000/svg"
 width="1266.000000pt" height="1280.000000pt" viewBox="0 0 1266.000000 1280.000000"
 preserveAspectRatio="xMidYMid meet" fill='#ffc300'>
<metadata>
Created by potrace 1.15, written by Peter Selinger 2001-2017
</metadata>
<g transform="translate(0.000000,1280.000000) scale(0.100000,-0.100000)"
stroke="none">
<path d="M6922 12788 c-12 -6 -24 -21 -27 -32 -32 -156 -37 -314 -13 -391 24
-73 184 -490 212 -550 13 -27 49 -93 80 -145 77 -130 107 -192 113 -238 5 -35
2 -42 -21 -57 -23 -16 -33 -16 -84 -5 -31 6 -97 20 -147 30 -49 10 -146 32
-215 49 -69 17 -183 38 -254 47 -129 16 -158 23 -271 64 -74 27 -126 23 -182
-14 -47 -32 -88 -101 -97 -168 -8 -55 6 -95 67 -186 35 -54 91 -104 352 -315
171 -138 413 -336 538 -439 381 -316 521 -416 722 -518 138 -70 215 -97 440
-154 233 -60 235 -61 235 -100 -1 -61 -38 -333 -47 -352 -6 -10 -14 -113 -17
-229 -15 -478 -33 -639 -80 -719 -66 -112 -147 -149 -374 -170 -86 -8 -204
-24 -262 -35 -240 -46 -526 -91 -579 -91 -32 0 -143 15 -247 34 -272 49 -369
60 -544 59 -233 0 -405 -29 -935 -152 -461 -108 -517 -122 -695 -181 -348
-115 -483 -183 -1075 -542 -1263 -766 -1581 -979 -1786 -1199 -227 -244 -382
-437 -500 -624 -152 -241 -408 -828 -562 -1285 -95 -283 -104 -356 -113 -940
-9 -532 6 -661 106 -940 22 -63 49 -151 59 -195 10 -44 22 -88 26 -99 7 -17 4
-18 -36 -12 -111 15 -291 18 -351 6 -240 -47 -374 -224 -355 -468 11 -137 61
-277 136 -379 68 -94 269 -205 454 -253 165 -42 253 -86 689 -343 497 -293
553 -319 743 -347 109 -17 189 -20 500 -20 204 0 458 -1 565 -2 107 -1 332 0
500 3 l305 4 600 -69 c625 -71 897 -90 967 -67 120 40 104 117 -66 319 l-87
102 203 0 c112 0 348 -5 524 -11 308 -11 323 -11 360 7 26 13 45 32 58 58 17
34 18 47 9 105 -24 153 -115 321 -218 404 -120 96 -396 213 -607 257 -170 35
-495 63 -899 76 l-206 7 40 36 c22 19 53 59 69 87 43 77 106 136 314 292 67
50 145 117 173 149 70 77 163 218 212 321 38 78 53 131 113 379 60 250 145
333 446 438 172 60 193 71 321 166 102 76 359 211 479 253 l45 15 45 -52 c141
-162 228 -238 382 -330 15 -9 71 -74 125 -144 53 -71 124 -159 156 -198 85
-102 155 -210 167 -258 5 -23 30 -107 55 -187 24 -80 60 -206 80 -280 30 -115
50 -166 139 -345 150 -300 183 -388 306 -805 38 -129 88 -282 111 -340 31 -80
42 -125 47 -190 6 -66 13 -95 34 -131 61 -103 210 -157 521 -189 59 -6 175
-22 259 -36 333 -55 482 -41 572 55 28 29 28 33 24 109 -5 85 -10 97 -103 231
-64 92 -81 108 -160 149 -130 67 -331 296 -419 477 -48 98 -63 146 -96 305
-12 58 -34 152 -50 210 -16 58 -36 143 -44 189 -16 85 -21 202 -9 214 12 13
100 -134 248 -418 38 -71 92 -165 121 -208 30 -43 69 -106 89 -141 19 -34 86
-131 147 -214 62 -83 140 -199 172 -259 113 -205 165 -312 182 -370 21 -75 50
-112 111 -146 91 -49 185 -64 641 -102 215 -18 350 -19 389 -4 76 28 91 84 50
174 -13 28 -36 88 -52 135 -15 47 -36 101 -45 120 -23 46 -95 113 -191 177
-152 103 -507 542 -624 773 -30 60 -75 229 -140 534 -26 121 -64 278 -85 350
-21 72 -59 202 -84 289 -113 388 -126 676 -40 888 46 113 103 212 160 279 77
90 99 124 137 216 19 44 52 107 74 140 63 92 84 140 186 424 121 338 150 425
237 699 234 741 306 1073 330 1526 5 110 15 241 22 290 6 50 12 138 12 197 1
104 2 107 31 138 47 50 138 108 259 165 156 74 243 101 408 125 79 12 176 32
216 46 86 29 225 97 339 166 l83 51 38 -26 38 -25 0 67 -1 66 38 -1 c34 -1 37
1 31 20 -14 41 -10 60 16 66 19 5 31 22 57 86 61 150 78 263 59 379 -8 42 -8
42 78 164 81 115 9 296 -191 486 -52 50 -165 159 -252 243 -86 83 -187 175
-225 202 -99 72 -452 299 -656 422 -185 112 -248 140 -351 158 -35 6 -102 22
-149 36 -138 39 -233 53 -455 64 -115 6 -247 18 -295 26 -47 8 -134 19 -195
23 -121 8 -144 17 -220 81 -28 23 -91 66 -141 95 -105 63 -154 112 -214 216
-142 246 -317 512 -446 679 -115 148 -310 344 -449 451 -432 334 -994 680
-1254 773 -85 31 -176 41 -209 24z"/>
</g>
</svg>
