<svg xmlns="http://www.w3.org/2000/svg" fill="none" viewBox="-0.5 -0.5 200 200" id="Payment-With-Card--Streamline-Bangalore.svg" height="200" width="200"><desc>Payment With Card Streamline Illustration: https://streamlinehq.com</desc><g id="Shopping-Payment-with-card-01"><g id="color 2"><path id="Vector" fill="#c4feca" d="M104.11481 79.94128500000001c-2.189995 1.3214595 -4.668341 2.0919875 -7.22171 2.245715 0.5965025 1.689709 1.039377 3.4296655 1.32335 5.198874999999999l4.385960000000001 1.92831 2.665605 -3.875525c-0.23979499999999998 -1.859854 -0.62486 -3.698017 -1.153205 -5.497375Z" stroke-width="1"></path><path id="Vector_2" fill="#c4feca" d="M132.264355 46.64958c-11.00271 13.72503 -20.058204999999997 18.905 -26.107805 20.965645000000002 1.6258299999999999 4.31034 2.892465 7.52419 3.4825 11.399715 0.018904999999999998 0.037809999999999996 21.093999999999998 -8.185865 30.853955 -25.273 -2.018855 -3.0929575 -4.87152 -5.5518015 -8.22865 -7.09236Z" stroke-width="1"></path><path id="Vector_3" fill="#c4feca" d="M101.27906 68.825145c-1.0218649999999998 0.16666250000000002 -2.0702965 0.042188 -3.0248 -0.359195 -1.380065 1.606925 -3.74319 2.15517 -6.522225 2.249695 -0.4162085 0.5839655 -0.9509215 1.0735055 -1.569115 1.43678 1.3511105 2.140842 2.580234 4.3562095 3.6815 6.635655 4.367055000000001 -0.26467 7.67543 -1.05868 9.962935 -3.10042 -0.5979949999999999 -2.370289 -1.445735 -4.6706294999999995 -2.528295 -6.862515Z" stroke-width="1"></path><path id="Vector_4" fill="#c4feca" d="M54.39466 92.51311c11.00271 -0.41591 25.124745 -2.189 35.787165 -5.93617 -1.4738935 -4.1271605 -3.3415084999999998 -8.102882 -5.576975 -11.87234 -8.174919999999998 3.0795250000000003 -14.655354999999998 3.069575 -31.325585 4.215815 3.9252749999999996 -0.215915 4.773015 13.083255 1.115395 13.592694999999999Z" stroke-width="1"></path><path id="Vector_5" fill="#c4feca" d="m142.24719 43.2825 2.930275 2.6467c0.2786 0.247954 0.643765 0.375314 1.015895 0.35402100000000003 0.37213 -0.021293 0.72038 -0.1893485 0.9691299999999999 -0.467451L156.16127 35.82c0.12338 -0.13800649999999998 0.217905 -0.29899749999999997 0.27959500000000004 -0.4737195 0.060695 -0.1748215 0.08656499999999999 -0.35989150000000003 0.076615 -0.5447625 -0.010945 -0.18487099999999998 -0.057710000000000004 -0.365762 -0.138305 -0.532524 -0.080595 -0.16666250000000002 -0.19303 -0.315813 -0.331335 -0.438994l-6.73018 -6.0695c-0.138305 -0.1234795 -0.299495 -0.2186015 -0.47362 -0.2796945 -0.17512 -0.0611925 -0.36019 -0.0872615 -0.5452600000000001 -0.0767145 -0.18506999999999998 0.010547 -0.365165 0.057411500000000004 -0.532325 0.138106 -0.16716 0.080595 -0.315415 0.1933285 -0.438795 0.331733l-8.999775 10.00174c-0.12338 0.13800649999999998 -0.2189 0.29899749999999997 -0.27959500000000004 0.473819 -0.06169 0.17472200000000002 -0.08756 0.35989150000000003 -0.076615 0.5447625 0.00995 0.18487099999999998 0.056715 0.3658615 0.13731000000000002 0.532524 0.080595 0.166762 0.194025 0.3159125 0.33233 0.43889449999999997l0.6965 0.623865c1.049725 -1.5542895 3.38698 -4.8206755 4.1421850000000004 -5.01281 0.5313300000000001 0.7439615 -0.04179 2.7675924999999997 -0.5552100000000001 4.578592 -0.43083499999999997 1.517972 -0.8178899999999999 2.8865945 -0.47759999999999997 3.2271829999999997Z" stroke-width="1"></path></g><g id="color 1"><path id="Vector_6" fill="#276f70" d="M141.19050000000001 155.44885c-3.4357349999999998 0.94724 -6.946095 1.598965 -10.492275 1.9472150000000001 3.8576149999999996 5.387925 3.1571350000000002 6.597845 4.518295 9.168925 6.25855 2.5710800000000003 20.078104999999997 4.896395 26.789379999999998 5.02873 -4.9948999999999995 -6.20084 -14.7459 -9.4525 -20.8154 -16.144869999999997Z" stroke-width="1"></path><path id="Vector_7" fill="#276f70" d="M48.326155 127.97889c-4.1967110000000005 0.15123999999999999 -8.396805 -0.18506999999999998 -12.516105000000001 -1.001965 -3.931245 8.50725 -6.729185 19.112955 -8.148055 25.976464999999997 9.793785 -4.59889 10.03955 -14.64839 20.02139 -15.654335 -0.267854 -3.121315 -0.0510435 -6.265515 0.6427700000000001 -9.320165000000001Z" stroke-width="1"></path><path id="Vector_8" fill="#276f70" d="M55.245385000000006 80.319385c-1.3044449999999999 0.17014500000000002 -2.552175 0.28357499999999997 -3.74319 0.359195 0.90744 -2.17308 2.49546 -2.363125 3.74319 -0.359195Z" stroke-width="1"></path><path id="Vector_9" fill="#276f70" d="M56.09611 90.73603999999999c-1.001965 2.476555 -2.779035 2.34422 -4.045669999999999 -0.094525 1.644735 0.0029850000000000002 3.10042 0.037809999999999996 4.045669999999999 0.094525Z" stroke-width="1"></path><path id="Vector_10" fill="#276f70" d="M155.27273499999998 106.067c-0.287555 -0.627845 -0.755205 -1.1561899999999998 -1.344245 -1.5193649999999999 -0.5880449999999999 -0.36218 -1.2706149999999998 -0.54128 -1.9611450000000001 -0.51541 -0.69053 0.024875 -1.35718 0.25472 -1.917365 0.6596850000000001 -0.5601849999999999 0.40496499999999996 -0.98704 0.96714 -1.22783 1.614885s-0.28357499999999997 1.3522049999999999 -0.12338 2.02383c0.1592 0.67262 0.51541 1.28156 1.02087 1.752195 0.506455 0.46963999999999995 1.141265 0.779085 1.82284 0.88953 0.68257 0.10945 1.382055 0.01393 2.0099 -0.273625 0.4179 -0.190045 0.79401 -0.460685 1.107435 -0.796995 0.313425 -0.33631 0.5562050000000001 -0.73033 0.7163999999999999 -1.161165 0.160195 -0.42984 0.23283 -0.888535 0.21492 -1.3472300000000001 -0.016915 -0.458695 -0.12537 -0.9094300000000001 -0.3184 -1.326335Z" stroke-width="1"></path><path id="Vector_11" fill="#276f70" d="M103.05613 106.54061999999999c-0.9830599999999999 2.6088899999999997 -1.99 5.10435 -3.0845000000000002 7.52419 0.73232 2.32233 1.7820449999999999 5.08843 2.189 6.0695 -0.6925199999999999 -5.91826 0.914405 -13.56981 0.8955 -13.59369Z" stroke-width="1"></path><path id="Vector_12" fill="#276f70" d="M95.51303499999999 38.500530000000005c-3.017437 0.0030845 -5.9103995000000005 1.203154 -8.043978000000001 3.3368320000000002 -2.133678 2.1335785 -3.3337475 5.026541 -3.3368320000000002 8.043978000000001 -0.022288 1.7082160000000002 0.27611250000000004 3.405487 0.87958 5.003855 -1.4816545 -2.628392 -3.8305510000000003 -4.6602815 -6.644809 -5.748115 -2.8142579999999997 -1.087734 -5.9191555000000005 -1.1638515 -8.7833625 -0.21521849999999998 -2.864207 0.9486330000000001 -5.309718 2.863013 -6.9183345 5.4156854999999995 -1.608517 2.5526725 -2.2801419999999997 5.584935000000001 -1.8999525 8.578094 0.380289 2.993159 1.7888110000000002 5.7611495 3.984577 7.8305505 2.195766 2.0693015 5.0423615 3.3113599999999996 8.052734 3.5136434999999997 3.0103725 0.2022835 5.997561500000001 -0.647745 8.450535 -2.4046165 2.452874 -1.756971 4.218999 -4.3116335 4.9963925 -7.2269835 1.644735 0.90744 3.85662 1.02087 5.273499999999999 2.0228349999999997 -0.231835 -0.46367 -1.1571850000000001 -2.1442249999999996 -1.70145 -2.2118849999999997 -3.6815 -0.22686 -3.55414 -3.573045 -1.417875 -2.968085 1.02087 0.28357499999999997 1.266635 0.056715 1.0945 -0.45372 -1.266635 -2.7422199999999997 -0.24576499999999998 -9.469415 5.17997 -3.819805 1.1767865000000002 1.1300215 2.1773585 2.430387 2.968085 3.8576149999999996 2.7830150000000002 -0.530136 5.268525 -2.07955 6.968979999999999 -4.3450655000000005 1.70145 -2.2655155 2.496455 -5.0841515 2.2288 -7.904678 -0.26666 -2.820427 -1.577075 -5.4397645 -3.672545 -7.345587500000001 -2.0964650000000002 -1.9059225 -4.8284365 -2.9611199999999998 -7.6615 -2.9593290000000003h0.0029850000000000002Z" stroke-width="1"></path><path id="Vector_13" fill="#276f70" d="M95.98566000000001 65.85706c-0.661874 0.189249 -1.3385734999999999 0.32238 -2.0228349999999997 0.398l3.1949449999999997 1.55021c-0.6249595 -0.47610749999999996 -1.0443520000000002 -1.1730055000000001 -1.17211 -1.94821Z" stroke-width="1"></path><path id="Vector_14" fill="#276f70" d="M189.01816 75.8389c0.207955 0.4731225 0.550235 0.8741074999999999 0.986045 1.15221 0.434815 0.278003 0.94326 0.4207855 1.459665 0.4100395 0.516405 -0.0106465 1.01888 -0.1742245 1.4417550000000001 -0.4701375 0.42386999999999997 -0.2958135 0.75023 -0.710629 0.93729 -1.1919104999999999 0.188055 -0.48128150000000003 0.22885 -1.0074375 0.11740999999999999 -1.5119025000000001 -0.11144 -0.504465 -0.369145 -0.9646525 -0.74227 -1.3222555 -0.373125 -0.357603 -0.84376 -0.596602 -1.3522049999999999 -0.6868485 -0.508445 -0.090147 -1.03281 -0.027462 -1.5054349999999999 0.180095 -0.31442 0.137111 -0.59899 0.3350165 -0.836795 0.5823735 -0.237805 0.247357 -0.424865 0.53929 -0.5492400000000001 0.8589834999999999 -0.12537 0.319793 -0.18506999999999998 0.6609785 -0.17810499999999999 1.004154 0.00796 0.343076 0.08358 0.6812765 0.221885 0.995199Z" stroke-width="1"></path><path id="Vector_15" fill="#276f70" d="M174.480215 82.24769500000001c0.20695999999999998 0.4731225 0.550235 0.8741074999999999 0.986045 1.1521104999999998 0.434815 0.27810250000000003 0.94326 0.420885 1.459665 0.41013900000000003 0.516405 -0.0106465 1.01888 -0.1742245 1.4417550000000001 -0.4701375 0.42386999999999997 -0.2958135 0.75023 -0.710629 0.93729 -1.1919104999999999 0.188055 -0.48128150000000003 0.22885 -1.0074375 0.11740999999999999 -1.5119025000000001 -0.11144 -0.504465 -0.369145 -0.9646525 -0.74227 -1.3222555 -0.373125 -0.357603 -0.84376 -0.596602 -1.3522049999999999 -0.6868485 -0.508445 -0.090147 -1.03281 -0.0275615 -1.5054349999999999 0.180095 -0.31442 0.137111 -0.59899 0.3350165 -0.836795 0.5823735 -0.237805 0.247357 -0.424865 0.53929 -0.5492400000000001 0.8589834999999999 -0.12537 0.319793 -0.18506999999999998 0.6609785 -0.17810499999999999 1.0040545 0.00796 0.34317549999999997 0.08358 0.681376 0.221885 0.9952985Z" stroke-width="1"></path></g><g id="outlines"><path id="Vector_16" stroke="#070419" stroke-linecap="round" stroke-linejoin="round" d="m54.980715 146.09087499999998 4.404864999999999 9.603739999999998c0.876197 1.90642 2.4732715 3.387975 4.440486 4.11731 1.9672145 0.73033 4.1436775 0.65073 6.051789 -0.22288l42.08253 -19.284095" stroke-width="1"></path><path id="Vector_17" stroke="#070419" stroke-linecap="round" stroke-linejoin="round" d="m131.14896 131.514125 36.20407 -16.579685c1.90642 -0.876595 3.387975 -2.47357 4.11731 -4.440685 0.73033 -1.9671150000000002 0.65073 -4.14318 -0.22288 -6.05159l-25.465035 -55.599605" stroke-width="1"></path><path id="Vector_18" stroke="#070419" stroke-linecap="round" stroke-linejoin="round" d="M137.99257 38.841815c-1.760155 -0.45571 -3.622795 -0.28874900000000003 -5.273499999999999 0.47262499999999996l-25.859055 11.8394055" stroke-width="1"></path><path id="Vector_19" stroke="#070419" stroke-linecap="round" stroke-linejoin="round" d="m45.263545 79.35523 19.298821 -8.836595" stroke-width="1"></path><path id="Vector_20" stroke="#070419" stroke-linecap="round" stroke-linejoin="round" d="m37.247825 83.0228 -2.0228349999999997 0.9263450000000001c-1.9068180000000001 0.8760975 -3.387975 2.4730725000000002 -4.118305 4.4402870000000005 -0.7304295 1.9672145 -0.6502325 4.1438765 0.22288 6.051988l15.389665 33.57528" stroke-width="1"></path><path id="Vector_21" stroke="#070419" stroke-linecap="round" stroke-linejoin="round" d="m118.652755 110.5445 10.73804 -4.9153c0.4179 -0.194025 0.741275 -0.5452600000000001 0.90147 -0.978085 0.1592 -0.43183 0.14129 -0.9094300000000001 -0.050745 -1.328325l-1.039775 -2.30641c-0.194025 -0.4179 -0.5452600000000001 -0.741275 -0.978085 -0.90147 -0.43183 -0.1592 -0.9094300000000001 -0.14129 -1.328325 0.050745l-10.983805 5.02873" stroke-width="1"></path><path id="Vector_22" stroke="#070419" stroke-linecap="round" stroke-linejoin="round" d="m101.487015 118.41296 -4.7451550000000005 2.174075" stroke-width="1"></path><path id="Vector_23" stroke="#070419" stroke-linecap="round" stroke-linejoin="round" d="M95.96675499999999 65.875965c0.129549 0.5931194999999999 0.4098405 1.142857 0.8139099999999999 1.5959800000000002 0.40397000000000005 0.45322250000000003 0.917987 0.7945075 1.4925 0.99102 0.954006 0.403174 2.002935 0.527748 3.0248 0.359195 12.36387 -1.91637 23.134745000000002 -12.420585 30.96639 -22.175565 3.35514 1.5403595 6.206810000000001 3.9980094999999993 8.22467 7.0893749999999995 -9.755975 17.09012 -30.83505 25.313795 -30.853955 25.273" stroke-width="1"></path><path id="Vector_24" stroke="#070419" stroke-linecap="round" stroke-linejoin="round" d="M93.94391999999999 66.254065s9.11022 -0.41391999999999995 0.90744 -8.885349999999999c-5.6317 -5.81677 -6.633665 0.729335 -5.4088199999999995 3.541205 0.343275 0.787045 -0.29252999999999996 0.75421 -1.0566900000000001 0.5422750000000001 -2.13925 -0.597 -2.2685999999999997 2.741225 1.417875 2.968085 0.295913 0.156613 0.554016 0.3760105 0.7562 0.6427700000000001 2.51138 3.662595 2.43974 5.823735 -1.70145 7.788860000000001 -10.68033 5.06853 -16.6364 4.72625 -35.57921 6.0695" stroke-width="1"></path><path id="Vector_25" stroke="#070419" stroke-linecap="round" stroke-linejoin="round" d="m93.9627255 66.254065 3.17604 1.55021" stroke-width="1"></path><path id="Vector_26" stroke="#070419" stroke-linecap="round" stroke-linejoin="round" d="M54.375755 92.51311c11.00271 -0.41591 25.124745 -2.189 35.787165 -5.93617" stroke-width="1"></path><path id="Vector_27" stroke="#070419" stroke-linecap="round" stroke-linejoin="round" d="M55.245385000000006 80.319385c-4.4274515 0.5732195 -8.9063445 0.6303325 -13.34693 0.17014500000000002 -1.3618565 -0.190244 -2.707793 -0.4808835 -4.026764999999999 -0.86963 -1.5180715 -0.4156115 -3.008283 -0.9270415 -4.46158 -1.531305 -4.00786 -1.6477199999999999 -4.99092 -0.90744 -1.22982 1.9661199999999999 4.1991985 2.7835125 8.760378 4.9780845 13.55588 6.522225" stroke-width="1"></path><path id="Vector_28" stroke="#070419" stroke-linecap="round" stroke-linejoin="round" d="M56.0960105 90.73603999999999c-2.9262949999999996 -0.17512 -12.766845 -0.199 -15.672245 0.07561999999999999 -5.105345 0.49152999999999997 -3.3829005000000003 -0.6427700000000001 -1.7909005 -1.606925 1.15221 -0.6965 6.57894 -2.060645 4.593915 -3.4825" stroke-width="1"></path><path id="Vector_29" stroke="#070419" stroke-linecap="round" stroke-linejoin="round" d="M37.213 79.411945c-0.86963 -0.6427700000000001 -2.570085 -2.13726 -3.06261 -2.5710800000000003 -2.2636249999999998 -1.99 -1.55021 -2.478545 -1.115395 -2.2885 1.7422449999999998 0.767145 4.423769999999999 2.3253150000000002 6.0695 3.0058949999999998 2.6467 1.0945 7.67543 3.28947 10.17089 3.232755" stroke-width="1"></path><path id="Vector_30" stroke="#070419" stroke-linecap="round" stroke-linejoin="round" d="M38.930369999999996 77.50254c-0.32138500000000003 -0.398 -0.603965 -0.7193849999999999 -0.7562 -0.90744 -1.895475 -2.3372550000000003 -1.1342999999999999 -2.703415 -0.737295 -2.438745 1.592 1.05868 3.9919399999999996 3.01883 5.501355 3.951145 1.8163725 1.069227 3.7275685000000003 1.968508 5.70931 2.6865" stroke-width="1"></path><path id="Vector_31" stroke="#070419" stroke-linecap="round" stroke-linejoin="round" d="M51.502195 80.67858c1.46464 -3.51036 4.42974 -1.503445 5.133204999999999 4.00189 0.82585 6.4675 -2.2725799999999996 10.414665000000001 -4.58496 5.9610449999999995" stroke-width="1"></path><path id="Vector_32" stroke="#070419" stroke-linecap="round" stroke-linejoin="round" d="M142.24719 43.2825c-0.6965 -0.9263450000000001 0.9452499999999999 -4.518295 1.115395 -5.6147849999999995 0.28357499999999997 -1.833785 0.516405 -3.89045 -2.3820300000000003 0.359195 -2.32034 3.2366354999999998 -4.826745 6.335961 -7.506279999999999 9.282355" stroke-width="1"></path><path id="Vector_33" stroke="#070419" stroke-linecap="round" stroke-linejoin="round" d="m142.24719 43.2825 2.930275 2.6467c0.2786 0.247954 0.643765 0.3752145 1.015895 0.35402100000000003 0.37213 -0.021293 0.72038 -0.189448 0.9691299999999999 -0.467451L156.16127 35.82c0.12338 -0.13800649999999998 0.217905 -0.29899749999999997 0.27959500000000004 -0.473819 0.060695 -0.17472200000000002 0.08656499999999999 -0.35989150000000003 0.076615 -0.544663 -0.010945 -0.18487099999999998 -0.057710000000000004 -0.3658615 -0.138305 -0.532524 -0.080595 -0.16666250000000002 -0.19303 -0.3159125 -0.331335 -0.438994l-6.73018 -6.0695c-0.138305 -0.1234795 -0.299495 -0.2186015 -0.47362 -0.279794 -0.17512 -0.061093 -0.36019 -0.087162 -0.5452600000000001 -0.076615 -0.18506999999999998 0.0104475 -0.365165 0.057411500000000004 -0.532325 0.138106 -0.166165 0.080595 -0.315415 0.1933285 -0.438795 0.331733l-8.999775 10.00174c-0.12338 0.13800649999999998 -0.2189 0.29899749999999997 -0.27959500000000004 0.4737195 -0.06169 0.1748215 -0.08756 0.359991 -0.076615 0.544862 0.00995 0.18487099999999998 0.056715 0.3658615 0.138305 0.532524 0.080595 0.166762 0.19303 0.3159125 0.331335 0.43889449999999997l0.6965 0.623865" stroke-width="1"></path><path id="Vector_34" stroke="#070419" stroke-linecap="round" stroke-linejoin="round" d="M140.053215 53.096185c2.9501749999999998 -3.1571350000000002 17.114 -10.818634999999999 15.238425 -11.097235000000001 -2.1969600000000002 -0.327355 -6.15109 1.855675 -6.57894 2.0954699999999997" stroke-width="1"></path><path id="Vector_35" stroke="#070419" stroke-linecap="round" stroke-linejoin="round" d="M151.91461 42.612865c0.44576 -0.29053999999999996 2.27656 -1.473595 3.7929399999999998 -2.2964599999999997 1.51638 -0.822865 -1.77707 -0.850725 -3.74319 0.17014500000000002" stroke-width="1"></path><path id="Vector_36" stroke="#070419" stroke-linecap="round" stroke-linejoin="round" d="M144.604345 45.413790000000006c-0.26467 -0.14726 -1.76911 -0.8616699999999999 -4.721275 0.025869999999999997" stroke-width="1"></path><path id="Vector_37" stroke="#070419" stroke-linecap="round" stroke-linejoin="round" d="M159.82884 103.988445c0.287555 0.627845 0.383075 1.3273300000000001 0.273625 2.0099 -0.110445 0.681575 -0.41989 1.316385 -0.88953 1.82284 -0.47063499999999997 0.50546 -1.079575 0.8616699999999999 -1.752195 1.02087 -0.671625 0.160195 -1.376085 0.11740999999999999 -2.02383 -0.12338 -0.647745 -0.24079 -1.2099199999999999 -0.667645 -1.614885 -1.22783 -0.40496499999999996 -0.5601849999999999 -0.63481 -1.2268350000000001 -0.6596850000000001 -1.917365 -0.025869999999999997 -0.69053 0.15323 -1.3731 0.51541 -1.9611450000000001 0.36317499999999997 -0.58904 0.89152 -1.0566900000000001 1.5193649999999999 -1.344245 0.41690499999999997 -0.19303 0.86764 -0.301485 1.326335 -0.3184 0.458695 -0.01791 0.91739 0.054725 1.3472300000000001 0.21492 0.43083499999999997 0.160195 0.824855 0.402975 1.161165 0.7163999999999999 0.33631 0.313425 0.60695 0.6895349999999999 0.796995 1.107435v0Z" stroke-width="1"></path><path id="Vector_38" stroke="#070419" stroke-linecap="round" stroke-linejoin="round" d="M155.27273499999998 106.067c0.287555 0.627845 0.383075 1.3273300000000001 0.273625 2.0099 -0.110445 0.681575 -0.41989 1.316385 -0.88953 1.82284 -0.47063499999999997 0.506455 -1.079575 0.8616699999999999 -1.752195 1.02087 -0.671625 0.160195 -1.376085 0.11740999999999999 -2.02383 -0.12338 -0.647745 -0.24079 -1.2099199999999999 -0.667645 -1.614885 -1.22783 -0.40496499999999996 -0.5601849999999999 -0.63481 -1.2268350000000001 -0.6596850000000001 -1.917365 -0.025869999999999997 -0.69053 0.15323 -1.3731 0.51541 -1.9611450000000001 0.36218 -0.58904 0.89152 -1.0566900000000001 1.5193649999999999 -1.344245 0.84376 -0.3781 1.801945 -0.40993999999999997 2.667595 -0.08756 0.866645 0.32138500000000003 1.5721 0.97112 1.96413 1.807915v0Z" stroke-width="1"></path><path id="Vector_39" stroke="#070419" stroke-linecap="round" stroke-linejoin="round" d="M150.71662999999998 108.16645c0.287555 0.627845 0.383075 1.3273300000000001 0.273625 2.0099 -0.110445 0.681575 -0.41989 1.316385 -0.88953 1.82284 -0.47063499999999997 0.506455 -1.079575 0.8616699999999999 -1.752195 1.02087 -0.671625 0.160195 -1.376085 0.11740999999999999 -2.02383 -0.12338 -0.647745 -0.24079 -1.2099199999999999 -0.667645 -1.614885 -1.22783 -0.40496499999999996 -0.5601849999999999 -0.63481 -1.2268350000000001 -0.6596850000000001 -1.917365 -0.025869999999999997 -0.69053 0.15323 -1.3731 0.51541 -1.9611450000000001 0.36317499999999997 -0.58904 0.89152 -1.0566900000000001 1.5193649999999999 -1.344245 0.41690499999999997 -0.19303 0.86764 -0.301485 1.326335 -0.3184 0.458695 -0.01791 0.91739 0.054725 1.3472300000000001 0.21492 0.43083499999999997 0.160195 0.824855 0.402975 1.161165 0.7163999999999999 0.33631 0.313425 0.60695 0.6895349999999999 0.796995 1.107435v0Z" stroke-width="1"></path><path id="Vector_40" stroke="#070419" stroke-linecap="round" stroke-linejoin="round" d="M61.427319999999995 99.0025c1.211114 -0.5515285 2.591577 -0.6006815 3.838909 -0.1364145 1.2472325 0.4641675 2.2597445 1.4040445 2.815651 2.6129695l2.968085 6.5033199999999995c0.5515285 1.2109150000000002 0.6005820000000001 2.591975 0.1364145 3.8387100000000003 -0.4641675 1.24773 -1.403746 2.259645 -2.6129695 2.81585l-9.301260000000001 4.253625c-1.2112135 0.55123 -2.5916764999999997 0.60098 -3.838909 0.13631500000000002 -1.247332 -0.46367 -2.2598439999999997 -1.403945 -2.815651 -2.61287l-2.985 -6.5033199999999995c-0.551628 -1.2109150000000002 -0.6006815 -2.591975 -0.136514 -3.8387100000000003 0.4641675 -1.24773 1.4038455 -2.259645 2.613069 -2.81585l9.318175 -4.253625Z" stroke-width="1"></path><path id="Vector_41" stroke="#070419" stroke-linecap="round" stroke-linejoin="round" d="M153.59019 94.55485c0.4179 -0.194025 0.741275 -0.5455585000000001 0.90147 -0.977687 0.1592 -0.4321285 0.14129 -0.909828 -0.050745 -1.3287229999999999l-1.039775 -2.30641c-0.194025 -0.417701 -0.5452600000000001 -0.7416729999999999 -0.978085 -0.901072 -0.43183 -0.159399 -0.9094300000000001 -0.14129 -1.328325 0.050346999999999996l-17.582645 8.034625c-0.4179 0.1941245 -0.741275 0.5455585000000001 -0.90147 0.9777865 -0.1592 0.4321285 -0.14129 0.909828 0.050745 1.3286235l1.039775 2.30641c0.194025 0.4179 0.5452600000000001 0.741275 0.978085 0.90147 0.43183 0.1592 0.9094300000000001 0.14129 1.328325 -0.050745l17.582645 -8.034625Z" stroke-width="1"></path><path id="Vector_42" stroke="#070419" stroke-linecap="round" stroke-linejoin="round" d="M189.01816 75.8389c0.207955 0.4731225 0.550235 0.8741074999999999 0.986045 1.15221 0.434815 0.278003 0.94326 0.4207855 1.459665 0.4100395 0.516405 -0.0106465 1.01888 -0.1742245 1.4417550000000001 -0.4701375 0.42386999999999997 -0.2958135 0.75023 -0.710629 0.93729 -1.1919104999999999 0.188055 -0.48128150000000003 0.22885 -1.0074375 0.11740999999999999 -1.5119025000000001 -0.11144 -0.504465 -0.369145 -0.9646525 -0.74227 -1.3222555 -0.373125 -0.357603 -0.84376 -0.596602 -1.3522049999999999 -0.6868485 -0.508445 -0.090147 -1.03281 -0.027462 -1.5054349999999999 0.180095 -0.31442 0.137111 -0.59899 0.3350165 -0.836795 0.5823735 -0.237805 0.247357 -0.424865 0.53929 -0.5492400000000001 0.8589834999999999 -0.12537 0.319793 -0.18506999999999998 0.6609785 -0.17810499999999999 1.004154 0.00796 0.343076 0.08358 0.6812765 0.221885 0.995199v0Z" stroke-width="1"></path><path id="Vector_43" stroke="#070419" stroke-linecap="round" stroke-linejoin="round" d="M174.480215 82.24769500000001c0.20695999999999998 0.4731225 0.550235 0.8741074999999999 0.986045 1.1521104999999998 0.434815 0.27810250000000003 0.94326 0.420885 1.459665 0.41013900000000003 0.516405 -0.0106465 1.01888 -0.1742245 1.4417550000000001 -0.4701375 0.42386999999999997 -0.2958135 0.75023 -0.710629 0.93729 -1.1919104999999999 0.188055 -0.48128150000000003 0.22885 -1.0074375 0.11740999999999999 -1.5119025000000001 -0.11144 -0.504465 -0.369145 -0.9646525 -0.74227 -1.3222555 -0.373125 -0.357603 -0.84376 -0.596602 -1.3522049999999999 -0.6868485 -0.508445 -0.090147 -1.03281 -0.0275615 -1.5054349999999999 0.180095 -0.31442 0.137111 -0.59899 0.3350165 -0.836795 0.5823735 -0.237805 0.247357 -0.424865 0.53929 -0.5492400000000001 0.8589834999999999 -0.12537 0.319793 -0.18506999999999998 0.6609785 -0.17810499999999999 1.0040545 0.00796 0.34317549999999997 0.08358 0.681376 0.221885 0.9952985v0Z" stroke-width="1"></path><path id="Vector_44" stroke="#070419" stroke-linecap="round" stroke-linejoin="round" d="m189.01816 75.8389 -9.75498 4.291435" stroke-width="1"></path><path id="Vector_45" stroke="#070419" stroke-linecap="round" stroke-linejoin="round" d="m192.98821 44.98594000000001 -5.2934 2.3253150000000002 3.36509 24.878980000000002" stroke-width="1"></path><path id="Vector_46" stroke="#070419" stroke-linecap="round" stroke-linejoin="round" d="m190.49275 68.01223 -19.39653 6.257555 -7.75105 -7.59981 25.44613 -11.229569999999999" stroke-width="1"></path><path id="Vector_47" stroke="#070419" stroke-linecap="round" stroke-linejoin="round" d="M99.98655500000001 114.10063000000001c1.0945 -2.4198399999999998 2.0895 -4.9511199999999995 3.069575 -7.561999999999999 0.018904999999999998 0.018904999999999998 -1.592 7.67543 -0.888535 13.592694999999999" stroke-width="1"></path><path id="Vector_48" stroke="#070419" stroke-linecap="round" stroke-linejoin="round" d="M84.585945 74.7046c4.820774999999999 7.807765000000001 7.29733 17.35479 8.12915 18.86719 4.801869999999999 2.703415 13.819555 0.434815 16.74983 -2.76013 1.3183749999999999 -10.430585 0.0995 -14.171785 -3.3083750000000003 -23.196434999999997" stroke-width="1"></path><path id="Vector_49" stroke="#070419" stroke-linecap="round" stroke-linejoin="round" d="M92.71509499999999 93.57179000000001c-3.9889550000000003 4.12129 -8.450535 -0.34029000000000004 -14.14094 29.85 -12.912115 -0.07561999999999999 -17.600555 1.001965 -29.699755 2.4198399999999998 -2.136265 6.8655 -1.531305 14.235465 1.001965 21.930795l32.5166 -10.68232c2.2838235 -0.753215 4.308748 -2.13527 5.841645000000001 -3.98796 4.7651545 -5.770005 8.7190855 -12.163874999999999 11.751945 -19.0045 4.06955 12.889230000000001 15.05236 32.420085 22.201435 43.711344999999994 10.945 0 20.040294999999997 -1.871595 27.262999999999998 -5.6715 -19.302999999999997 -14.933955000000001 -36.217999999999996 -51.478315 -39.98507 -61.32782" stroke-width="1"></path><path id="Vector_50" stroke="#070419" stroke-linecap="round" stroke-linejoin="round" d="M90.16292 72.152425c1.3548915 2.142832 2.5918755 4.3580005 3.7053800000000003 6.635655 4.367055000000001 -0.26467 7.67543 -1.05868 9.962935 -3.10042 -0.599985 -2.371483 -1.44872 -4.6728185 -2.53327 -6.8655" stroke-width="1"></path><path id="Vector_51" stroke="#070419" stroke-linecap="round" stroke-linejoin="round" d="m105.271 85.44264 -2.665605 3.875525 -4.3890445 -1.92831c-0.2836745 -1.7706025 -0.7266484999999999 -3.511952 -1.32335 -5.2028550000000005 2.553767 -0.15492150000000002 5.0318145 -0.9269419999999999 7.2218095 -2.249695 0.52934 1.8018455 0.9163950000000001 3.642695 1.1561899999999998 5.5053350000000005v0Z" stroke-width="1"></path><path id="Vector_52" stroke="#070419" stroke-linecap="round" stroke-linejoin="round" d="M141.19050000000001 155.44885c6.0695 6.69237 15.820500000000001 9.94403 20.8154 16.144869999999997 -6.711275 -0.132335 -20.53083 -2.45765 -26.789379999999998 -5.02873 -1.3611600000000001 -2.5710800000000003 -0.661675 -3.7809999999999997 -4.518295 -9.168925 3.5471749999999997 -0.347255 7.057535 -0.99898 10.492275 -1.9472150000000001v0Z" stroke-width="1"></path><path id="Vector_53" stroke="#070419" stroke-linecap="round" stroke-linejoin="round" d="M48.326155 127.97889c-4.1968105 0.15123999999999999 -8.3969045 -0.18506999999999998 -12.516105000000001 -1.001965 -3.931245 8.50725 -6.729185 19.112955 -8.148055 25.976464999999997 9.793785 -4.59889 10.03955 -14.64839 20.02139 -15.654335 -0.26795349999999996 -3.121315 -0.051143 -6.265515 0.6427700000000001 -9.320165000000001v0Z" stroke-width="1"></path><path id="Vector_54" stroke="#070419" stroke-linecap="round" stroke-linejoin="round" d="M91.75094 70.73455c2.779035 -0.094525 5.1421600000000005 -0.6427700000000001 6.522225 -2.249695" stroke-width="1"></path><path id="Vector_55" stroke="#070419" stroke-linecap="round" stroke-linejoin="round" d="M97.6302955 61.03628500000001c2.1204445 -0.4056615 4.0825845 -1.4064325 5.6556795 -2.8852015 1.573095 -1.478769 2.69247 -3.374642 3.228775 -5.466132 0.536305 -2.09149 0.46566 -4.2923305 -0.20198500000000003 -6.3455129999999995 -0.66864 -2.053083 -1.90642 -3.8738335 -3.571055 -5.249421 -1.66364 -1.375687 -3.6849825 -2.249496 -5.8272175 -2.51934 -2.1421354999999997 -0.2699435 -4.316907 0.075222 -6.2701915 0.995 -1.953384 0.9198775 -3.6046859999999996 2.376458 -4.7611745 4.1997955000000005 -1.156389 1.823238 -1.7703039999999999 3.9379115 -1.769906 6.096962 -0.025273 1.7085145000000002 0.275615 3.4061834999999996 0.886545 5.0018650000000004 -1.485933 -2.624412 -3.8373169999999996 -4.651227 -6.652172 -5.7338865 -2.814855 -1.0826595 -5.9184589999999995 -1.1540009999999998 -8.780078999999999 -0.2016865 -2.86162 0.9522149999999999 -5.3036485 2.8688835000000004 -6.908484 5.422352 -1.604935 2.5534685 -2.272978 5.5850345 -1.890102 8.5766015 0.382876 2.9914674999999997 1.79299 5.75707 3.9892535 7.824083000000001 2.1962635 2.0669135 5.042262 3.306783 8.051540000000001 3.507574 3.0091785 0.200791 5.994775499999999 -0.6498345 8.446157 -2.406507 2.451481 -1.756772 4.216611 -4.310439499999999 4.9936065 -7.2245955 1.644735 0.90744 3.85662 1.02087 5.273499999999999 2.0228349999999997" stroke-width="1"></path><path id="Vector_56" stroke="#070419" stroke-linecap="round" stroke-linejoin="round" d="M35.8487555 44.53222c0.220691 0.48615699999999995 0.29223150000000003 1.02684 0.2056665 1.553593 -0.08666449999999999 0.5268525 -0.327554 1.016094 -0.6922214999999999 1.4060345 -0.3646675 0.3899405 -0.836795 0.6629685 -1.3566825 0.7845575 -0.519788 0.121589 -1.064053 0.0862665 -1.5638415 -0.10139050000000001 -0.49978849999999997 -0.1877565 -0.932713 -0.51939 -1.2440485 -0.9531105 -0.311236 -0.43382 -0.486953 -0.9501255 -0.504863 -1.4836445 -0.0178105 -0.5336185 0.122982 -1.0605705 0.404567 -1.5140915000000001 0.281585 -0.45362050000000004 0.691326 -0.813512 1.177483 -1.0342030000000002 0.3224795 -0.1483545 0.671227 -0.231238 1.0259444999999998 -0.243974 0.354817 -0.012736 0.708639 0.044974 1.040969 0.169747 0.33233 0.12477300000000001 0.6366010000000001 0.31422100000000003 0.895301 0.557399 0.2587 0.24307849999999998 0.466655 0.5351109999999999 0.611726 0.8590829999999999v0Z" stroke-width="1"></path><path id="Vector_57" stroke="#070419" stroke-linecap="round" stroke-linejoin="round" d="M45.01778 47.916214999999994c0.2203925 0.4860575 0.2918335 1.026442 0.205169 1.552996 -0.08666449999999999 0.5266535 -0.327554 1.015696 -0.692122 1.4053380000000002 -0.3646675 0.3897415 -0.836596 0.6625705000000001 -1.356185 0.78406 -0.5196885 0.1214895 -1.063655 0.086167 -1.5632445 -0.10149 -0.49958949999999996 -0.1877565 -0.932315 -0.5192905 -1.2434515 -0.9529115 -0.3111365 -0.43352149999999995 -0.486754 -0.949628 -0.5045645 -1.482948 -0.0178105 -0.5334195 0.12288249999999999 -1.0600729999999998 0.404368 -1.5134945s0.6910275 -0.813114 1.1769855 -1.0338049999999999c0.3224795 -0.1481555 0.6711275 -0.2309395 1.0257455 -0.243576 0.354618 -0.0126365 0.7083404999999999 0.0450735 1.0405710000000001 0.16984649999999998 0.3322305 0.1248725 0.6364019999999999 0.31422100000000003 0.8950024999999999 0.5572995000000001 0.2586005 0.242979 0.46655549999999996 0.5349119999999999 0.611726 0.858685v0Z" stroke-width="1"></path><path id="Vector_58" stroke="#070419" stroke-linecap="round" stroke-linejoin="round" d="m34.865795 55.45931 6.181935 -16.352825" stroke-width="1"></path><path id="Vector_59" stroke="#070419" stroke-linecap="round" stroke-linejoin="round" d="m98.9347405 154.673745 4.2537245 9.244545" stroke-width="1"></path><path id="Vector_60" stroke="#070419" stroke-linecap="round" stroke-linejoin="round" d="m105.683925 157.169205 -9.244545 4.27253" stroke-width="1"></path><path id="Vector_61" stroke="#070419" stroke-linecap="round" stroke-linejoin="round" d="M137.368705 72.492715c0.57511 0.394816 1.0338049999999999 0.9357975 1.32932 1.5672245 0.29551499999999997 0.6315265 0.4179 1.3304145 0.35322499999999996 2.0247254999999997" stroke-width="1"></path><path id="Vector_62" stroke="#070419" stroke-linecap="round" stroke-linejoin="round" d="M139.39154000000002 69.451c1.0427600000000001 0.854307 1.88055 1.930897 2.4536700000000002 3.150966 0.572125 1.2200689999999998 0.864655 2.5528715 0.8557 3.9005989999999997" stroke-width="1"></path><path id="Vector_63" stroke="#070419" stroke-linecap="round" stroke-linejoin="round" d="M141.5885 66.04611c2.985 2.917738 4.80585 6.821919 5.123255 10.983805" stroke-width="1"></path><path id="Vector_64" stroke="#070419" stroke-linecap="round" stroke-linejoin="round" d="m120.051725 27.516725 -3.238725 1.46862c-0.20198500000000003 0.0783065 -0.38606 0.19701000000000002 -0.540285 0.348847 -0.154225 0.151837 -0.27661 0.333524 -0.35819999999999996 0.534116 -0.082585 0.200592 -0.122385 0.41581049999999997 -0.118405 0.632422 0.004975 0.2166115 0.052735 0.43003899999999995 0.142285 0.6272479999999999 0.08954999999999999 0.1973085 0.2189 0.3742195 0.379095 0.5198875 0.160195 0.145668 0.34825 0.25720750000000003 0.55322 0.327554 0.20496999999999999 0.07034649999999999 0.42188 0.0982065 0.63879 0.081789 0.215915 -0.016517 0.42586 -0.07681400000000001 0.617895 -0.1774085l1.81488 -0.824855c0.379095 -0.1616875 0.806945 -0.168752 1.1910150000000002 -0.019601499999999997 0.38407 0.149051 0.6955049999999999 0.4424765 0.866645 0.817691 0.17114 0.375115 0.188055 0.8022685 0.048755 1.190219 -0.1393 0.38795050000000003 -0.424865 0.7059525 -0.796 0.8862465l-3.260615 1.4925" stroke-width="1"></path><path id="Vector_65" stroke="#070419" stroke-linecap="round" stroke-linejoin="round" d="m117.215975 27.516725 3.610855 7.9032849999999994" stroke-width="1"></path><path id="Vector_66" stroke="#070419" stroke-linecap="round" stroke-linejoin="round" d="M15.827465 101.1915c-0.21999449999999998 -0.420885 -0.5927215 -0.74227 -1.0418645 -0.89749 -0.449143 -0.154225 -0.9405735000000001 -0.13134 -1.3733985 0.06368 -0.432825 0.196015 -0.774309 0.550235 -0.9543045 0.990025 -0.179896 0.43979 -0.1847715 0.932315 -0.0134325 1.37509l0.83182 1.8526900000000002" stroke-width="1"></path><path id="Vector_67" stroke="#070419" stroke-linecap="round" stroke-linejoin="round" d="M26.300835 109.22513000000001c0.291535 -0.11144 0.5571005 -0.281585 0.7803785 -0.500485 0.22327799999999998 -0.217905 0.399592 -0.47958999999999996 0.5179969999999999 -0.76814 0.118405 -0.289545 0.176513 -0.59899 0.1706425 -0.91142 -0.0058705 -0.31243 -0.07552049999999999 -0.619885 -0.204771 -0.90346 -0.129151 -0.28457 -0.31511649999999997 -0.53929 -0.546454 -0.749235 -0.2313375 -0.209945 -0.5031715 -0.369145 -0.7986865 -0.47063499999999997 -0.29551499999999997 -0.100495 -0.6084425 -0.1393 -0.9196785 -0.114425 -0.311236 0.023880000000000002 -0.6141139999999999 0.11243500000000001 -0.8899279999999999 0.2587 -7.59981 1.81488 -10.2087 1.55021 -11.135045 -0.49152999999999997 0.9263450000000001 2.04174 -0.6049599999999999 4.179 -6.95706985 8.715205000000001 -0.51512145 0.27263000000000004 -0.90667385 0.73232 -1.09472885 1.28355 -0.18806495 0.5522250000000001 -0.15845375 1.155195 0.08277405 1.68553 0.2412278 0.530335 0.67589355 0.9492299999999999 1.21528305 1.1701199999999998 0.5393895000000001 0.221885 1.1428371 0.22885 1.68717175 0.0199l18.092114849999998 -8.223675Z" stroke-width="1"></path></g></g></svg>