<?xml version="1.0" encoding="utf-8"?>
<!-- Generator: Adobe Illustrator 27.5.0, SVG Export Plug-In . SVG Version: 6.00 Build 0)  -->
<svg version="1.1" xmlns="http://www.w3.org/2000/svg" xmlns:xlink="http://www.w3.org/1999/xlink" x="0px" y="0px"
	 viewBox="0 0 500 500" style="enable-background:new 0 0 500 500;" xml:space="preserve">
<g id="BACKGROUND">
	<rect style="fill:#FFFFFF;" width="500" height="500"/>
</g>
<g id="OBJECTS">
	<g>
		<path style="fill:#CCB6F3;" d="M47.197,367.171c0,0-35.54-101.764-3.261-117.137c32.279-15.373-6.709-113.268,55.586-130.642
			s34.924-92.366,140.74-61.672C346.079,88.413,352.986,5.229,402.489,87.634c49.504,82.405,26.289,122.6,62.562,133.963
			c36.272,11.363,17.411,114.846-11.607,145.573C253.222,367.171,47.197,367.171,47.197,367.171z"/>
		<path style="fill:#E0E0E0;" d="M464.007,375.578c0,4.819-94.943,13.089-212.06,13.089s-212.06-8.27-212.06-13.089
			c0-4.819,94.943-8.725,212.06-8.725S464.007,370.759,464.007,375.578z"/>
		<path style="fill:#FFFFFF;" d="M206.673,121.095h45.15c0,0,0.708-8.331-8.922-5.542c-9.63,2.79-3.289-9.438-20.068-8.675
			C206.215,107.635,197.502,106.879,206.673,121.095z"/>
		<g>
			<path style="fill:#E669AD;" d="M344.974,205.123c35.693,0,47.606-56.202,31.286-47.275c-16.32,8.927,15.979-57.002-12.05-43.931
				s8.553-40.882-26.419-40.269c-34.973,0.613-4.79,48.051-26.2,43.026c-21.41-5.025,13.371,53.47-7.811,45.554
				C282.598,154.312,287.039,205.123,344.974,205.123z"/>
			<g>
				<path style="fill:#401A4C;" d="M338.842,78.572c0,0,0.061,12.342,0.152,30.854c0.036,18.513,0.083,43.196,0.131,67.88
					c-0.047,24.684-0.095,49.367-0.13,67.88c-0.091,18.513-0.153,30.854-0.153,30.854s-0.061-12.342-0.153-30.854
					c-0.035-18.513-0.083-43.196-0.13-67.88c0.047-24.684,0.095-49.367,0.13-67.88C338.781,90.913,338.842,78.572,338.842,78.572z"
					/>
			</g>
			<g>
				<path style="fill:#401A4C;" d="M364.392,123.964c0,0-0.057,0.543-0.289,1.468c-0.097,0.468-0.283,1.016-0.461,1.658
					c-0.235,0.62-0.436,1.35-0.793,2.089c-0.168,0.374-0.342,0.764-0.523,1.168c-0.209,0.39-0.425,0.794-0.647,1.208
					c-0.208,0.424-0.474,0.828-0.748,1.24c-0.274,0.412-0.539,0.845-0.852,1.253c-0.666,0.784-1.281,1.661-2.093,2.384
					c-0.391,0.373-0.764,0.775-1.179,1.132l-1.306,1.006l-0.66,0.496l-0.715,0.409c-0.477,0.27-0.952,0.539-1.423,0.806
					c-0.962,0.493-1.981,0.826-2.927,1.228c-0.979,0.312-1.96,0.501-2.871,0.732c-0.453,0.134-0.911,0.165-1.352,0.211
					c-0.44,0.046-0.865,0.091-1.272,0.134c-0.815,0.088-1.56,0.183-2.227,0.125c-0.664-0.02-1.243-0.036-1.719-0.05
					c-0.95-0.035-1.493-0.055-1.493-0.055s0.543-0.02,1.495-0.055c0.474-0.014,1.05-0.031,1.71-0.05
					c0.662,0.017,1.396-0.122,2.199-0.232c0.401-0.057,0.819-0.116,1.251-0.177c0.432-0.061,0.882-0.107,1.323-0.255
					c0.889-0.261,1.84-0.486,2.798-0.792c0.921-0.407,1.913-0.742,2.845-1.234c0.456-0.266,0.916-0.534,1.377-0.803l0.692-0.405
					l0.637-0.49l1.284-0.964c0.408-0.343,0.776-0.731,1.162-1.09c0.801-0.695,1.411-1.547,2.073-2.306
					c0.313-0.394,0.569-0.821,0.857-1.212c0.283-0.395,0.558-0.783,0.778-1.191c0.233-0.4,0.46-0.79,0.679-1.167
					c0.192-0.392,0.378-0.77,0.557-1.133c0.373-0.72,0.614-1.425,0.885-2.028c0.213-0.623,0.43-1.159,0.553-1.617
					C364.286,124.498,364.392,123.964,364.392,123.964z"/>
			</g>
			<g>
				<path style="fill:#401A4C;" d="M337.798,133.314c0,0-1.607,0.273-4.051,0.272c-1.22-0.008-2.648-0.063-4.165-0.271
					c-1.517-0.203-3.121-0.546-4.684-1.042c-1.556-0.514-3.058-1.21-4.353-2.047c-0.651-0.411-1.247-0.865-1.768-1.343
					c-0.533-0.463-0.991-0.952-1.386-1.422c-0.406-0.463-0.716-0.935-0.988-1.352c-0.261-0.424-0.458-0.811-0.631-1.121
					c-0.283-0.652-0.445-1.025-0.445-1.025s0.197,0.353,0.542,0.972c0.196,0.294,0.42,0.66,0.709,1.055
					c0.302,0.387,0.639,0.823,1.052,1.259c0.407,0.44,0.875,0.894,1.415,1.319c0.527,0.439,1.129,0.844,1.762,1.241
					c1.27,0.792,2.741,1.445,4.268,1.925c1.518,0.508,3.088,0.871,4.579,1.094c1.49,0.226,2.893,0.384,4.103,0.439
					C336.174,133.405,337.798,133.314,337.798,133.314z"/>
			</g>
			<g>
				<path style="fill:#401A4C;" d="M349.053,98.178c0,0,0.153,1.515,0.047,3.797c-0.065,1.138-0.163,2.471-0.404,3.882
					c-0.241,1.41-0.597,2.902-1.102,4.353c-0.261,0.722-0.574,1.426-0.919,2.101c-0.36,0.667-0.734,1.317-1.181,1.89
					c-0.421,0.591-0.924,1.091-1.42,1.533c-0.251,0.219-0.521,0.401-0.767,0.593c-0.267,0.162-0.526,0.319-0.774,0.47
					c-0.519,0.26-1.01,0.461-1.465,0.578c-0.444,0.15-0.857,0.177-1.18,0.251c-0.666,0.054-1.044,0.065-1.044,0.065
					s0.373-0.063,1.025-0.174c0.315-0.101,0.713-0.16,1.133-0.343c0.431-0.152,0.887-0.387,1.374-0.656
					c0.23-0.156,0.47-0.319,0.718-0.488c0.227-0.197,0.475-0.383,0.703-0.604c0.452-0.448,0.9-0.949,1.301-1.517
					c0.419-0.555,0.769-1.189,1.105-1.839c0.323-0.659,0.613-1.347,0.858-2.053c0.516-1.404,0.891-2.863,1.152-4.248
					c0.259-1.386,0.459-2.692,0.57-3.819C349.024,99.698,349.053,98.178,349.053,98.178z"/>
			</g>
			<g>
				<path style="fill:#401A4C;" d="M338.842,104.073c0,0-0.208,0.146-0.614,0.323c-0.2,0.096-0.455,0.183-0.748,0.287
					c-0.298,0.086-0.636,0.19-1.021,0.228c-0.379,0.072-0.805,0.06-1.25,0.042c-0.223-0.031-0.452-0.062-0.686-0.095
					c-0.23-0.056-0.456-0.151-0.69-0.23c-0.243-0.064-0.446-0.218-0.668-0.343c-0.218-0.132-0.451-0.251-0.629-0.442l-0.577-0.529
					c-0.17-0.196-0.315-0.414-0.474-0.622c-0.335-0.41-0.519-0.896-0.743-1.352c-0.248-0.449-0.345-0.939-0.5-1.392
					c-0.069-0.229-0.145-0.452-0.203-0.675c-0.036-0.227-0.071-0.448-0.105-0.664c-0.068-0.43-0.132-0.837-0.191-1.212
					c-0.051-0.375-0.045-0.725-0.061-1.032c-0.011-0.307-0.02-0.574-0.028-0.795c-0.008-0.44-0.013-0.691-0.013-0.691
					s0.045,0.248,0.123,0.682c0.072,0.433,0.171,1.052,0.294,1.788c0.087,0.363,0.181,0.756,0.28,1.171
					c0.049,0.207,0.1,0.42,0.152,0.637c0.073,0.21,0.147,0.425,0.222,0.643c0.16,0.431,0.265,0.905,0.511,1.318
					c0.223,0.424,0.408,0.881,0.725,1.246c0.141,0.194,0.269,0.4,0.42,0.584l0.51,0.49c0.156,0.181,0.363,0.288,0.556,0.412
					c0.196,0.117,0.375,0.264,0.592,0.325c0.208,0.079,0.413,0.158,0.614,0.234c0.212,0.046,0.418,0.091,0.62,0.134
					c0.408,0.047,0.807,0.092,1.171,0.051c0.734-0.034,1.345-0.177,1.761-0.301C338.61,104.175,338.842,104.073,338.842,104.073z"/>
			</g>
			<g>
				<path style="fill:#401A4C;" d="M374.235,167.288c0,0-0.196,0.677-0.677,1.812c-0.232,0.571-0.553,1.248-0.928,2.02
					c-0.403,0.758-0.834,1.63-1.419,2.514c-0.533,0.917-1.221,1.836-1.93,2.824c-0.347,0.5-0.778,0.954-1.178,1.451
					c-0.415,0.485-0.813,1.004-1.301,1.457c-0.47,0.468-0.949,0.944-1.433,1.426c-0.473,0.495-1.042,0.895-1.567,1.353
					c-0.548,0.43-1.051,0.929-1.646,1.31l-1.757,1.191c-0.297,0.192-0.583,0.404-0.891,0.577l-0.939,0.493
					c-0.625,0.328-1.247,0.654-1.865,0.978c-1.258,0.596-2.563,1.036-3.789,1.54c-1.256,0.422-2.515,0.69-3.685,1.011
					c-0.295,0.072-0.581,0.162-0.871,0.215c-0.292,0.042-0.579,0.084-0.862,0.125c-0.565,0.082-1.111,0.161-1.635,0.237
					c-1.048,0.145-2.003,0.327-2.867,0.303c-0.858,0.022-1.606,0.041-2.223,0.057c-1.23,0.032-1.932,0.05-1.932,0.05
					s0.701-0.053,1.929-0.145c0.612-0.046,1.356-0.102,2.209-0.166c0.857-0.02,1.799-0.251,2.836-0.415
					c0.517-0.09,1.056-0.183,1.614-0.28c0.279-0.048,0.562-0.097,0.85-0.147c0.285-0.06,0.567-0.158,0.857-0.237
					c1.149-0.351,2.381-0.656,3.62-1.074c1.205-0.51,2.488-0.954,3.721-1.553c0.605-0.324,1.215-0.651,1.827-0.98l0.92-0.493
					c0.302-0.173,0.58-0.386,0.872-0.575l1.74-1.156c0.59-0.369,1.089-0.857,1.632-1.276c0.521-0.447,1.086-0.835,1.556-1.319
					c0.482-0.471,0.957-0.936,1.425-1.393c0.487-0.44,0.877-0.955,1.304-1.419c0.408-0.48,0.848-0.917,1.204-1.401
					c0.726-0.956,1.434-1.848,1.987-2.742c0.597-0.865,1.068-1.705,1.507-2.439c0.41-0.749,0.763-1.407,1.022-1.963
					C374.006,167.955,374.235,167.288,374.235,167.288z"/>
			</g>
			<g>
				<path style="fill:#401A4C;" d="M338.842,181.206c0,0-2.196,0.365-5.536,0.386c-1.667-0.009-3.617-0.077-5.691-0.344
					c-2.071-0.274-4.265-0.715-6.404-1.365c-1.063-0.344-2.113-0.731-3.119-1.179c-1.004-0.449-1.979-0.929-2.875-1.477
					c-0.909-0.523-1.739-1.115-2.486-1.718c-0.385-0.289-0.732-0.602-1.065-0.908c-0.341-0.297-0.656-0.598-0.939-0.908
					c-0.601-0.585-1.067-1.198-1.493-1.726c-0.4-0.549-0.73-1.04-1-1.443c-0.488-0.84-0.767-1.319-0.767-1.319
					s0.308,0.46,0.846,1.266c0.294,0.384,0.652,0.85,1.081,1.367c0.457,0.494,0.952,1.067,1.558,1.628
					c0.289,0.295,0.609,0.58,0.955,0.86c0.337,0.29,0.689,0.585,1.077,0.855c0.379,0.282,0.768,0.57,1.192,0.827
					c0.415,0.27,0.837,0.548,1.29,0.794c0.883,0.527,1.846,0.986,2.837,1.416c0.992,0.429,2.029,0.796,3.078,1.124
					c2.096,0.663,4.256,1.124,6.301,1.419c2.047,0.285,3.973,0.457,5.63,0.512c1.656,0.051,3.041,0.059,4.009,0.02
					C338.289,181.258,338.842,181.206,338.842,181.206z"/>
			</g>
		</g>
		<g>
			<linearGradient id="SVGID_1_" gradientUnits="userSpaceOnUse" x1="337.7979" y1="181.6815" x2="430.7589" y2="181.6815">
				<stop  offset="0" style="stop-color:#E2469A"/>
				<stop  offset="1" style="stop-color:#E669AD"/>
			</linearGradient>
			<path style="fill:url(#SVGID_1_);" d="M376.972,247.421c-36.343,0-48.473-56.202-31.856-47.275
				c16.617,8.927-16.27-57.002,12.27-43.931c28.539,13.072-8.709-40.882,26.901-40.269s4.878,48.051,26.678,43.026
				c21.8-5.025-13.615,53.47,7.953,45.554C440.485,196.611,435.963,247.421,376.972,247.421z"/>
			<g>
				<path style="fill:#401A4C;" d="M383.215,120.87c0,0,0.061,12.342,0.152,30.854c0.036,18.513,0.083,43.196,0.131,67.88
					c-0.047,24.684-0.095,49.367-0.13,67.88c-0.092,18.513-0.153,30.854-0.153,30.854s-0.061-12.342-0.153-30.854
					c-0.036-18.513-0.083-43.196-0.13-67.88c0.048-24.684,0.095-49.367,0.131-67.88C383.155,133.212,383.215,120.87,383.215,120.87z
					"/>
			</g>
			<g>
				<path style="fill:#401A4C;" d="M357.199,166.262c0,0,0.101,0.542,0.398,1.455c0.128,0.462,0.351,1.003,0.574,1.63
					c0.277,0.608,0.532,1.316,0.913,2.042c0.186,0.365,0.361,0.754,0.574,1.14c0.225,0.379,0.457,0.771,0.695,1.174
					c0.223,0.412,0.517,0.795,0.801,1.195c0.297,0.391,0.55,0.827,0.883,1.213c0.67,0.767,1.309,1.609,2.124,2.306
					c0.397,0.356,0.762,0.757,1.192,1.083l1.307,0.964c0.219,0.159,0.427,0.335,0.654,0.482l0.704,0.402
					c0.469,0.268,0.936,0.536,1.399,0.801c0.956,0.47,1.955,0.818,2.891,1.219c0.976,0.287,1.934,0.524,2.836,0.779
					c0.447,0.149,0.904,0.181,1.34,0.247c0.437,0.061,0.86,0.119,1.265,0.176c0.812,0.111,1.555,0.244,2.224,0.23
					c0.668,0.021,1.25,0.039,1.729,0.055c0.961,0.03,1.511,0.048,1.511,0.048s-0.549,0.017-1.51,0.048
					c-0.482,0.015-1.067,0.034-1.738,0.055c-0.674,0.059-1.428-0.026-2.251-0.118c-0.412-0.042-0.842-0.087-1.286-0.133
					c-0.444-0.052-0.909-0.068-1.368-0.202c-0.923-0.225-1.911-0.426-2.908-0.718c-0.961-0.396-1.986-0.742-2.971-1.212
					c-0.478-0.266-0.96-0.534-1.444-0.804l-0.727-0.405c-0.234-0.149-0.451-0.325-0.676-0.487l-1.329-1.006
					c-0.437-0.339-0.807-0.755-1.21-1.124c-0.825-0.725-1.471-1.592-2.145-2.384c-0.333-0.4-0.595-0.842-0.879-1.254
					c-0.275-0.418-0.559-0.817-0.772-1.245c-0.228-0.418-0.449-0.824-0.664-1.217c-0.202-0.399-0.367-0.799-0.541-1.175
					c-0.367-0.744-0.578-1.479-0.816-2.107c-0.185-0.647-0.374-1.201-0.474-1.674C357.266,166.81,357.199,166.262,357.199,166.262z"
					/>
			</g>
			<g>
				<path style="fill:#401A4C;" d="M384.278,175.612c0,0,1.646,0.091,4.099-0.045c1.227-0.053,2.651-0.211,4.163-0.435
					c1.513-0.222,3.108-0.579,4.651-1.085c1.552-0.478,3.053-1.122,4.349-1.913c0.646-0.397,1.26-0.801,1.801-1.239
					c0.551-0.425,1.032-0.88,1.451-1.321c0.423-0.439,0.773-0.875,1.08-1.266c0.299-0.396,0.526-0.768,0.729-1.063
					c0.354-0.625,0.556-0.982,0.556-0.982s-0.167,0.377-0.46,1.036c-0.18,0.312-0.38,0.705-0.652,1.13
					c-0.278,0.421-0.6,0.894-1.016,1.36c-0.407,0.471-0.878,0.961-1.423,1.425c-0.535,0.476-1.144,0.929-1.808,1.34
					c-1.322,0.835-2.853,1.521-4.434,2.033c-1.588,0.493-3.216,0.83-4.755,1.031c-1.539,0.206-2.987,0.26-4.224,0.267
					C385.908,175.885,384.278,175.612,384.278,175.612z"/>
			</g>
			<g>
				<path style="fill:#401A4C;" d="M372.819,140.477c0,0,0.027,1.528,0.274,3.792c0.114,1.133,0.318,2.445,0.584,3.837
					c0.27,1.391,0.654,2.856,1.184,4.262c0.254,0.707,0.548,1.398,0.884,2.054c0.343,0.651,0.705,1.282,1.133,1.834
					c0.413,0.565,0.87,1.061,1.33,1.507c0.239,0.212,0.484,0.404,0.716,0.597c0.252,0.166,0.495,0.326,0.729,0.48
					c0.495,0.263,0.955,0.493,1.39,0.643c0.425,0.176,0.825,0.238,1.142,0.337c0.656,0.109,1.031,0.171,1.031,0.171
					s-0.379-0.013-1.05-0.062c-0.326-0.072-0.74-0.102-1.188-0.245c-0.224-0.071-0.469-0.132-0.716-0.225
					c-0.242-0.108-0.497-0.222-0.763-0.34c-0.251-0.148-0.513-0.302-0.784-0.461c-0.252-0.187-0.518-0.376-0.78-0.584
					c-0.504-0.439-1.016-0.933-1.449-1.521c-0.457-0.57-0.844-1.218-1.21-1.886c-0.358-0.673-0.676-1.38-0.946-2.103
					c-0.52-1.454-0.886-2.953-1.136-4.369c-0.249-1.418-0.35-2.757-0.418-3.901C372.664,142,372.819,140.477,372.819,140.477z"/>
			</g>
			<g>
				<path style="fill:#401A4C;" d="M383.215,146.372c0,0,0.234,0.101,0.659,0.219c0.421,0.125,1.037,0.265,1.778,0.301
					c0.368,0.042,0.77-0.003,1.183-0.043c0.203-0.044,0.413-0.088,0.626-0.134c0.209-0.059,0.411-0.152,0.623-0.226
					c0.219-0.061,0.409-0.191,0.604-0.315c0.19-0.131,0.412-0.22,0.57-0.403l0.519-0.49c0.168-0.17,0.288-0.387,0.436-0.578
					c0.32-0.366,0.526-0.815,0.747-1.245c0.25-0.416,0.37-0.887,0.529-1.323c0.077-0.22,0.153-0.436,0.228-0.647
					c0.054-0.219,0.107-0.432,0.159-0.64c0.101-0.419,0.197-0.814,0.285-1.18c0.078-0.368,0.114-0.713,0.171-1.015
					c0.05-0.304,0.094-0.568,0.13-0.786c0.079-0.437,0.125-0.687,0.125-0.687s-0.005,0.253-0.015,0.696
					c-0.008,0.222-0.018,0.492-0.03,0.801c-0.017,0.309-0.009,0.662-0.066,1.04c-0.061,0.378-0.127,0.788-0.197,1.221
					c-0.036,0.217-0.074,0.44-0.112,0.669c-0.068,0.222-0.138,0.449-0.209,0.679c-0.153,0.458-0.266,0.948-0.519,1.398
					c-0.223,0.461-0.428,0.942-0.768,1.353c-0.165,0.205-0.302,0.432-0.492,0.616l-0.587,0.528c-0.18,0.192-0.429,0.293-0.644,0.431
					c-0.221,0.132-0.436,0.267-0.679,0.332c-0.237,0.075-0.462,0.18-0.697,0.221c-0.236,0.032-0.467,0.063-0.691,0.093
					c-0.449,0.01-0.876,0.023-1.259-0.05c-0.388-0.037-0.728-0.145-1.029-0.228c-0.295-0.105-0.553-0.189-0.755-0.286
					C383.426,146.517,383.215,146.372,383.215,146.372z"/>
			</g>
			<g>
				<path style="fill:#401A4C;" d="M347.177,209.587c0,0,0.236,0.673,0.784,1.79c0.268,0.56,0.626,1.226,1.05,1.979
					c0.448,0.74,0.936,1.583,1.546,2.454c0.566,0.901,1.297,1.792,2.037,2.756c0.373,0.479,0.816,0.924,1.235,1.404
					c0.431,0.47,0.842,0.977,1.338,1.419c0.478,0.459,0.963,0.925,1.455,1.397c0.492,0.472,1.059,0.87,1.593,1.314
					c1.051,0.915,2.259,1.651,3.44,2.424c0.573,0.416,1.204,0.733,1.828,1.058c0.622,0.328,1.242,0.654,1.857,0.978
					c1.262,0.579,2.556,1.035,3.781,1.539c1.261,0.4,2.505,0.715,3.672,1.061c0.58,0.192,1.164,0.287,1.73,0.377
					c0.565,0.096,1.11,0.189,1.634,0.279c1.049,0.166,2.005,0.388,2.872,0.409c0.863,0.064,1.616,0.12,2.236,0.166
					c1.242,0.092,1.952,0.145,1.952,0.145s-0.711-0.018-1.956-0.049c-0.624-0.016-1.381-0.035-2.249-0.057
					c-0.874,0.023-1.841-0.151-2.902-0.298c-0.53-0.076-1.083-0.154-1.655-0.236c-0.573-0.075-1.166-0.155-1.756-0.332
					c-1.186-0.316-2.457-0.595-3.735-0.998c-1.246-0.498-2.562-0.949-3.848-1.525c-0.627-0.323-1.259-0.648-1.894-0.975
					c-0.636-0.324-1.281-0.64-1.866-1.059c-1.193-0.796-2.412-1.555-3.471-2.494c-0.538-0.456-1.109-0.865-1.604-1.348
					c-0.494-0.483-0.983-0.96-1.463-1.429c-0.496-0.454-0.916-0.965-1.335-1.457c-0.411-0.498-0.846-0.959-1.21-1.454
					c-0.722-0.995-1.435-1.914-1.981-2.838c-0.598-0.89-1.048-1.766-1.459-2.531c-0.389-0.777-0.716-1.462-0.957-2.036
					C347.38,210.271,347.177,209.587,347.177,209.587z"/>
			</g>
			<g>
				<path style="fill:#401A4C;" d="M383.215,223.504c0,0,0.56,0.052,1.543,0.088c0.983,0.039,2.387,0.032,4.068-0.019
					c1.681-0.054,3.637-0.225,5.714-0.508c1.037-0.153,2.107-0.327,3.18-0.566c1.077-0.222,2.154-0.52,3.222-0.842
					c1.067-0.323,2.121-0.691,3.133-1.116c1.009-0.429,1.99-0.886,2.892-1.41c0.461-0.246,0.895-0.519,1.317-0.792
					c0.432-0.258,0.834-0.542,1.218-0.827c0.396-0.271,0.759-0.562,1.102-0.855c0.351-0.283,0.684-0.565,0.979-0.862
					c0.62-0.564,1.131-1.137,1.597-1.636c0.443-0.518,0.806-0.991,1.11-1.376c0.553-0.813,0.869-1.278,0.869-1.278
					s-0.287,0.484-0.79,1.332c-0.281,0.404-0.616,0.903-1.031,1.453c-0.436,0.533-0.918,1.146-1.533,1.735
					c-0.29,0.312-0.617,0.61-0.964,0.91c-0.338,0.31-0.698,0.619-1.091,0.909c-0.382,0.304-0.781,0.607-1.212,0.885
					c-0.417,0.298-0.864,0.571-1.329,0.831c-0.914,0.545-1.907,1.023-2.93,1.471c-1.025,0.444-2.092,0.832-3.174,1.17
					c-1.088,0.316-2.185,0.605-3.279,0.818c-1.09,0.23-2.174,0.394-3.224,0.536c-2.104,0.264-4.083,0.332-5.774,0.339
					c-1.693,0.001-3.099-0.117-4.08-0.204C383.771,223.591,383.215,223.504,383.215,223.504z"/>
			</g>
		</g>
		
			<linearGradient id="SVGID_00000021821724641910848890000013618382565578310534_" gradientUnits="userSpaceOnUse" x1="477.5491" y1="347.1555" x2="348.072" y2="347.1555">
			<stop  offset="0" style="stop-color:#2ABFD4"/>
			<stop  offset="0.3663" style="stop-color:#14AABC"/>
			<stop  offset="0.7283" style="stop-color:#059CAB"/>
			<stop  offset="1" style="stop-color:#0097A5"/>
		</linearGradient>
		<path style="fill:url(#SVGID_00000021821724641910848890000013618382565578310534_);" d="M350.59,373.098h125.937
			c0,0,7.04-21.763-15.84-14.573c-11.187,3.515,8.967-30.646-18.187-24.192c-18.894,4.49-25.52-13.397-39.307-13.116
			c-36.244,0.74-11.733,29.438-33.831,26.815C351.432,345.903,343.648,360.273,350.59,373.098z"/>
		
			<linearGradient id="SVGID_00000093155577548659490800000003755633109779805867_" gradientUnits="userSpaceOnUse" x1="29.2463" y1="347.1555" x2="158.7234" y2="347.1555">
			<stop  offset="0" style="stop-color:#2ABFD4"/>
			<stop  offset="0.3663" style="stop-color:#14AABC"/>
			<stop  offset="0.7283" style="stop-color:#059CAB"/>
			<stop  offset="1" style="stop-color:#0097A5"/>
		</linearGradient>
		<path style="fill:url(#SVGID_00000093155577548659490800000003755633109779805867_);" d="M31.764,373.098h125.937
			c0,0,7.04-21.763-15.84-14.573c-11.187,3.515,8.967-30.646-18.187-24.192c-18.894,4.49-25.52-13.397-39.306-13.116
			c-36.244,0.74-11.733,29.438-33.831,26.815C32.606,345.903,24.822,360.273,31.764,373.098z"/>
		<g>
			<path style="fill:#E2469A;" d="M384.237,375.308c-7.931-20.87-2.504-38.818,7.931-30.888s0-13.774,0-24.209
				s7.096-10.018,11.687-4.174s7.096-7.513,11.27-18.366c4.174-10.852,19.618-10.018,18.783,2.922
				c-0.835,12.939-12.522,15.861-5.426,19.2s12.522,11.27-1.67,18.783c-14.192,7.513-6.678,15.026-1.67,15.861
				c5.009,0.835,11.687,10.018-5.426,20.87C404.272,375.308,384.237,375.308,384.237,375.308z"/>
			<g>
				<path style="fill:#401A4C;" d="M423.055,302.263c0,0-0.537,1.068-1.405,2.97c-0.862,1.905-2.029,4.654-3.367,7.977
					c-0.655,1.667-1.371,3.471-2.076,5.398c-0.707,1.927-1.446,3.96-2.168,6.079c-0.754,2.108-1.453,4.313-2.175,6.55
					c-0.736,2.232-1.372,4.535-2.068,6.819c-0.645,2.299-1.29,4.598-1.925,6.861c-0.576,2.279-1.143,4.522-1.691,6.692
					c-0.502,2.182-0.987,4.291-1.447,6.291c-0.487,1.995-0.813,3.909-1.186,5.662c-0.339,1.759-0.714,3.36-0.951,4.797
					c-0.257,1.433-0.481,2.683-0.665,3.712c-0.369,2.059-0.58,3.235-0.58,3.235s0.177-1.182,0.486-3.251
					c0.155-1.035,0.342-2.291,0.558-3.732c0.193-1.445,0.52-3.057,0.839-4.822c0.344-1.76,0.64-3.683,1.095-5.688
					c0.434-2.009,0.866-4.134,1.373-6.319c0.538-2.177,1.094-4.427,1.658-6.714c0.624-2.271,1.259-4.578,1.893-6.884
					c0.71-2.285,1.36-4.588,2.109-6.821c0.735-2.238,1.448-4.443,2.214-6.551c0.725-2.123,1.509-4.145,2.247-6.064
					c0.738-1.919,1.484-3.714,2.167-5.373c1.387-3.31,2.67-6.012,3.576-7.897C422.488,303.316,423.055,302.263,423.055,302.263z"/>
			</g>
			<g>
				<path style="fill:#401A4C;" d="M399.472,321.672c0,0,0.018,0.136,0.05,0.39c0.027,0.255,0.087,0.627,0.175,1.096
					c0.181,0.937,0.52,2.265,1.155,3.765c0.624,1.497,1.584,3.168,2.98,4.622c0.694,0.728,1.499,1.395,2.398,1.942
					c0.898,0.55,1.9,0.951,2.932,1.217c1.03,0.278,2.101,0.419,3.159,0.408c1.058,0.017,2.099-0.114,3.093-0.299
					c0.992-0.204,1.944-0.446,2.829-0.741c0.89-0.281,1.705-0.624,2.462-0.932c0.734-0.358,1.434-0.634,2.019-0.951
					c0.59-0.307,1.117-0.554,1.527-0.801c0.833-0.473,1.309-0.743,1.309-0.743s-0.458,0.3-1.26,0.825
					c-0.395,0.273-0.906,0.553-1.479,0.899c-0.567,0.357-1.251,0.681-1.983,1.061c-1.494,0.694-3.289,1.441-5.328,1.865
					c-1.019,0.202-2.09,0.35-3.189,0.346c-1.097,0.023-2.219-0.108-3.303-0.39c-1.081-0.291-2.128-0.727-3.063-1.314
					c-0.936-0.585-1.767-1.292-2.48-2.056c-0.72-0.76-1.302-1.592-1.773-2.42c-0.474-0.827-0.86-1.642-1.144-2.421
					c-0.6-1.548-0.819-2.92-0.953-3.868c-0.058-0.478-0.095-0.852-0.105-1.109C399.481,321.809,399.472,321.672,399.472,321.672z"/>
			</g>
			<g>
				<path style="fill:#401A4C;" d="M389.246,353.812c0,0,0.197,0.62,0.541,1.706c0.146,0.553,0.435,1.181,0.749,1.904
					c0.278,0.739,0.732,1.505,1.206,2.349c0.215,0.436,0.52,0.837,0.831,1.255c0.325,0.406,0.587,0.885,0.989,1.267
					c0.382,0.398,0.774,0.806,1.175,1.223c0.451,0.361,0.911,0.73,1.38,1.105c0.458,0.39,1.027,0.636,1.545,0.968
					c0.514,0.348,1.112,0.546,1.691,0.791l0.877,0.357l0.925,0.237c0.62,0.149,1.229,0.355,1.874,0.397
					c0.636,0.074,1.269,0.19,1.906,0.234c0.64,0.01,1.278,0.019,1.911,0.029c0.634,0.043,1.259-0.087,1.879-0.121
					c0.617-0.073,1.236-0.073,1.828-0.213c1.184-0.25,2.355-0.374,3.42-0.705c1.07-0.302,2.106-0.514,3.014-0.869
					c0.922-0.314,1.767-0.601,2.515-0.856c0.733-0.3,1.371-0.562,1.897-0.778c1.054-0.432,1.656-0.679,1.656-0.679
					s-0.588,0.279-1.617,0.766c-0.515,0.244-1.141,0.54-1.859,0.88c-0.741,0.288-1.577,0.614-2.488,0.968
					c-0.903,0.384-1.94,0.63-3.012,0.967c-1.066,0.366-2.246,0.537-3.448,0.791c-0.598,0.148-1.23,0.155-1.857,0.235
					c-0.632,0.042-1.265,0.179-1.915,0.142c-0.648-0.003-1.301-0.007-1.956-0.01c-0.654-0.039-1.307-0.149-1.963-0.222
					c-0.66-0.051-1.291-0.268-1.929-0.428l-0.951-0.255l-0.905-0.377c-0.597-0.26-1.211-0.471-1.741-0.836
					c-0.534-0.348-1.117-0.611-1.588-1.017c-0.478-0.395-0.959-0.771-1.406-1.163c-0.4-0.441-0.791-0.873-1.171-1.293
					c-0.4-0.404-0.655-0.902-0.974-1.326c-0.304-0.436-0.603-0.854-0.808-1.304c-0.226-0.437-0.443-0.855-0.649-1.253
					c-0.212-0.394-0.32-0.813-0.472-1.181c-0.279-0.748-0.534-1.392-0.651-1.952C389.41,354.442,389.246,353.812,389.246,353.812z"
					/>
			</g>
		</g>
		<g>
			<path style="fill:#E2469A;" d="M119.094,372.897c6.513-17.14,2.057-31.88-6.513-25.367c-8.57,6.513,0-11.312,0-19.882
				c0-8.57-5.827-8.227-9.598-3.428c-3.771,4.799-5.827-6.17-9.255-15.083c-3.428-8.913-16.111-8.227-15.426,2.4
				c0.686,10.627,10.284,13.026,4.456,15.769c-5.828,2.742-10.284,9.255,1.371,15.426c11.655,6.17,5.485,12.341,1.371,13.026
				c-4.113,0.686-9.598,8.227,4.456,17.14C102.64,372.897,119.094,372.897,119.094,372.897z"/>
			<g>
				<path style="fill:#401A4C;" d="M87.214,312.908c0,0,0.469,0.863,1.232,2.403c0.748,1.547,1.812,3.762,2.955,6.479
					c0.563,1.362,1.179,2.835,1.787,4.41c0.609,1.575,1.256,3.235,1.852,4.978c0.631,1.732,1.217,3.543,1.822,5.38
					c0.617,1.834,1.151,3.726,1.736,5.602c0.52,1.895,1.04,3.79,1.552,5.656c0.463,1.878,0.918,3.727,1.359,5.515
					c0.416,1.794,0.768,3.541,1.121,5.192c0.37,1.647,0.611,3.227,0.891,4.673c0.26,1.45,0.525,2.774,0.679,3.962
					c0.173,1.184,0.324,2.217,0.448,3.067c0.249,1.7,0.391,2.671,0.391,2.671s-0.176-0.966-0.485-2.656
					c-0.154-0.845-0.341-1.87-0.556-3.047c-0.198-1.179-0.51-2.493-0.791-3.937c-0.308-1.439-0.579-3.01-0.982-4.648
					c-0.38-1.642-0.781-3.373-1.195-5.164c-0.451-1.782-0.918-3.623-1.392-5.494c-0.522-1.858-1.053-3.745-1.584-5.633
					c-0.571-1.875-1.092-3.766-1.695-5.6c-0.591-1.837-1.165-3.648-1.783-5.379c-0.593-1.74-1.196-3.411-1.774-4.994
					c-0.576-1.584-1.161-3.066-1.697-4.436c-1.095-2.73-2.043-4.992-2.747-6.559C87.652,313.787,87.214,312.908,87.214,312.908z"/>
			</g>
			<g>
				<path style="fill:#401A4C;" d="M106.582,328.848c0,0-0.034,0.448-0.095,1.233c-0.048,0.39-0.149,0.861-0.244,1.406
					c-0.141,0.532-0.285,1.142-0.532,1.777c-0.13,0.315-0.265,0.644-0.405,0.984c-0.15,0.336-0.352,0.661-0.535,1.008
					c-0.173,0.354-0.409,0.682-0.655,1.014c-0.24,0.337-0.481,0.686-0.8,0.98c-0.313,0.295-0.583,0.65-0.947,0.908
					c-0.358,0.263-0.711,0.547-1.087,0.8c-0.404,0.21-0.812,0.421-1.22,0.633c-0.42,0.186-0.874,0.292-1.312,0.441
					c-0.436,0.168-0.905,0.171-1.358,0.239c-0.456,0.059-0.91,0.125-1.362,0.076c-0.451-0.02-0.899-0.039-1.341-0.059
					c-0.436-0.064-0.861-0.161-1.282-0.239c-0.854-0.115-1.62-0.431-2.357-0.686c-0.749-0.227-1.403-0.567-2.013-0.864
					c-0.604-0.308-1.185-0.536-1.637-0.855c-0.465-0.293-0.87-0.548-1.204-0.758c-0.662-0.425-1.04-0.668-1.04-0.668
					s0.399,0.208,1.096,0.573c0.346,0.185,0.766,0.409,1.248,0.667c0.469,0.282,1.063,0.466,1.669,0.75
					c0.614,0.267,1.272,0.574,2.015,0.764c0.732,0.218,1.493,0.488,2.317,0.594c0.408,0.069,0.821,0.158,1.242,0.214
					c0.424,0.012,0.853,0.025,1.286,0.037c0.434,0.042,0.864-0.029,1.295-0.091c0.429-0.071,0.874-0.077,1.281-0.242
					c0.413-0.136,0.844-0.227,1.242-0.397c0.388-0.194,0.775-0.388,1.159-0.58c0.358-0.235,0.695-0.499,1.039-0.743
					c0.349-0.238,0.609-0.576,0.913-0.852c0.311-0.272,0.538-0.611,0.787-0.92c0.25-0.309,0.493-0.614,0.673-0.95
					c0.19-0.328,0.401-0.635,0.561-0.955c0.151-0.326,0.296-0.64,0.436-0.942c0.262-0.611,0.447-1.198,0.624-1.711
					c0.129-0.526,0.263-0.982,0.338-1.368C106.508,329.291,106.582,328.848,106.582,328.848z"/>
			</g>
			<g>
				<path style="fill:#401A4C;" d="M114.981,355.243c0,0-0.129,0.519-0.354,1.427c-0.094,0.459-0.302,0.99-0.53,1.606
					c-0.197,0.631-0.536,1.29-0.915,2.005c-0.168,0.371-0.412,0.715-0.662,1.075c-0.261,0.35-0.471,0.761-0.799,1.095
					c-0.313,0.347-0.633,0.704-0.962,1.069c-0.367,0.325-0.763,0.635-1.157,0.961c-0.832,0.583-1.735,1.156-2.742,1.53l-0.746,0.312
					l-0.784,0.211c-0.525,0.133-1.045,0.312-1.589,0.355c-0.54,0.06-1.078,0.15-1.617,0.181c-0.54,0.002-1.077,0.005-1.611,0.007
					c-0.535,0.03-1.056-0.084-1.576-0.118c-0.516-0.067-1.036-0.073-1.528-0.195c-0.988-0.21-1.958-0.354-2.834-0.657
					c-0.881-0.28-1.732-0.485-2.473-0.803c-0.748-0.294-1.434-0.563-2.042-0.802c-0.589-0.281-1.103-0.526-1.526-0.728
					c-0.841-0.41-1.322-0.644-1.322-0.644s0.497,0.197,1.366,0.543c0.433,0.176,0.958,0.389,1.56,0.633
					c0.615,0.207,1.31,0.441,2.067,0.696c0.746,0.288,1.597,0.46,2.475,0.705c0.875,0.269,1.835,0.367,2.806,0.572
					c0.485,0.115,0.993,0.113,1.498,0.173c0.508,0.028,1.02,0.134,1.54,0.098c0.518-0.008,1.041-0.017,1.565-0.025
					c0.522-0.037,1.04-0.132,1.561-0.193c0.527-0.034,1.027-0.202,1.534-0.323l0.757-0.193l0.718-0.291
					c0.973-0.347,1.842-0.887,2.65-1.436c0.384-0.306,0.761-0.608,1.131-0.902c0.329-0.341,0.652-0.674,0.965-0.998
					c0.331-0.311,0.547-0.704,0.814-1.035c0.256-0.341,0.508-0.669,0.685-1.026c0.391-0.69,0.765-1.318,0.995-1.923
					c0.259-0.592,0.499-1.106,0.62-1.56C114.814,355.751,114.981,355.243,114.981,355.243z"/>
			</g>
		</g>
		<path style="fill:#E0E0E0;" d="M401.651,416.879c0,0,58.142,4.627,34.407-25.503C437.473,402.356,422.416,417.377,401.651,416.879
			z"/>
		<path style="fill:#E0E0E0;" d="M348.824,419.297c-49.191-3.399-50.529-17.83-40.67-26.817
			C310.788,400.492,310.957,411.088,348.824,419.297z"/>
		<path style="fill:#E0E0E0;" d="M377.615,395.946c-37.781-2.102-53.722,11.73-14.585,12.214
			C402.167,408.644,453.663,400.177,377.615,395.946z"/>
		<path style="fill:#E0E0E0;" d="M374.087,381.639c0,0,53.785-8.224,61.971,10.842C431.186,377.69,407.914,370.111,374.087,381.639z
			"/>
		<path style="fill:#E0E0E0;" d="M133.709,371.283c0,0-56.579-1.114-72.056,19.199c-15.477,20.313,20.796,15.149,54.745,12.161
			c9.888-7.746,75.034-1.802,58.59,7.051c-19.11,10.29-52.155,3.98-57.33-3.019c-63.671,4.246-74.857-5.203-65.915-16.744
			C60.686,378.391,100.813,364.862,133.709,371.283z"/>
		<path style="fill:none;stroke:#4B4BE3;stroke-width:5.6693;stroke-miterlimit:10;" d="M84.003,404.38
			c-52.234,1.269-38.207-42.085,58.508-35.366"/>
		<path style="fill:none;stroke:#4B4BE3;stroke-width:5.6693;stroke-miterlimit:10;" d="M73.685,334.096"/>
		<path style="fill:none;stroke:#4B4BE3;stroke-width:5.6693;stroke-miterlimit:10;" d="M124.027,255.474"/>
		<path style="fill:none;stroke:#4B4BE3;stroke-width:5.6693;stroke-miterlimit:10;" d="M398.228,252.64
			c39.946,15.858,59.24,31.83,58.187,62.429c-0.97,28.187-19.811,69.618-111.9,67.57c-57.069-1.269-43.427,36.659,31.659,36.659
			c76.699,0,103.314-59.517-65.18-55.823"/>
		<g>
			<path style="fill:#401A4C;" d="M381.259,382.122H119.207c-10.798,0-19.551-8.754-19.551-19.551V202.684
				c0-10.798,8.753-19.551,19.551-19.551h262.052c10.798,0,19.551,8.754,19.551,19.551v159.887
				C400.81,373.369,392.057,382.122,381.259,382.122z"/>
			<rect x="119.642" y="191.822" style="fill:#FFFFFF;" width="261.183" height="181.611"/>
			<text transform="matrix(1 0 0 1 166.8633 303.1348)"><tspan x="0" y="0" style="fill:#E2469A; font-family:'Montserrat-ExtraBold'; font-size:79.9714px;">404</tspan><tspan x="18.043" y="16.452" style="fill:#E2469A; font-family:'Montserrat-Regular'; font-size:13.7098px;">PAGE NOT FOUND</tspan></text>
			<path style="fill:#652687;" d="M113.342,282.628c0,2.699-2.188,4.888-4.888,4.888c-2.699,0-4.888-2.188-4.888-4.888
				c0-2.699,2.188-4.888,4.888-4.888C111.153,277.74,113.342,279.928,113.342,282.628z"/>
			<path style="fill:#652687;" d="M390.6,303.917L390.6,303.917c-2.748,0-4.996-2.248-4.996-4.996v-32.586
				c0-2.748,2.248-4.996,4.996-4.996l0,0c2.748,0,4.997,2.248,4.997,4.996v32.586C395.596,301.668,393.348,303.917,390.6,303.917z"
				/>
		</g>
		<g>
			<path style="fill:#FFFFFF;" d="M156.021,157.519h-25.331c-2.087,0-3.779,1.692-3.779,3.778v7.189H70.162v66.263h89.637v-73.453
				C159.799,159.21,158.107,157.519,156.021,157.519z"/>
			<rect x="72.903" y="171.202" style="fill:#E2469A;" width="84.155" height="60.747"/>
			<text transform="matrix(1 0 0 1 81.9111 210.8062)"><tspan x="0" y="0" style="fill:#FFFFFF; font-family:'Montserrat-ExtraBold'; font-size:31.7219px;">404</tspan><tspan x="7.157" y="6.526" style="fill:#FFFFFF; font-family:'Montserrat-Regular'; font-size:5.4382px;">PAGE NOT FOUND</tspan></text>
			<rect x="129.475" y="166.849" style="fill:#CCB6F3;" width="7.342" height="1.403"/>
			<rect x="139.112" y="160.909" style="fill:#CCB6F3;" width="7.342" height="7.342"/>
			<line style="fill:none;stroke:#CCB6F3;stroke-miterlimit:10;" x1="148.749" y1="168.252" x2="156.091" y2="160.909"/>
			<line style="fill:none;stroke:#CCB6F3;stroke-miterlimit:10;" x1="148.749" y1="160.909" x2="156.091" y2="168.252"/>
		</g>
		<g>
			<path style="fill:#FFFFFF;" d="M313.254,128.233h-25.331c-2.087,0-3.778,1.692-3.778,3.779v7.189h-56.748v66.263h89.637v-73.452
				C317.033,129.925,315.341,128.233,313.254,128.233z"/>
			<rect x="230.137" y="141.917" style="fill:#2ABFD4;" width="84.155" height="60.747"/>
			<text transform="matrix(1 0 0 1 239.144 181.521)"><tspan x="0" y="0" style="fill:#FFFFFF; font-family:'Montserrat-ExtraBold'; font-size:31.7219px;">404</tspan><tspan x="7.157" y="6.526" style="fill:#FFFFFF; font-family:'Montserrat-Regular'; font-size:5.4382px;">PAGE NOT FOUND</tspan></text>
			<rect x="286.708" y="137.564" style="fill:#CCB6F3;" width="7.342" height="1.403"/>
			<rect x="296.345" y="131.624" style="fill:#CCB6F3;" width="7.342" height="7.342"/>
			<line style="fill:none;stroke:#CCB6F3;stroke-miterlimit:10;" x1="305.982" y1="138.967" x2="313.325" y2="131.624"/>
			<line style="fill:none;stroke:#CCB6F3;stroke-miterlimit:10;" x1="305.982" y1="131.624" x2="313.325" y2="138.967"/>
		</g>
		<g>
			<path style="fill:#FFFFFF;" d="M216.488,63.132h-25.331c-2.087,0-3.778,1.692-3.778,3.778V74.1H130.63v66.263h89.637V66.911
				C220.267,64.824,218.575,63.132,216.488,63.132z"/>
			<rect x="133.371" y="76.815" style="fill:#4B4BE3;" width="84.155" height="60.747"/>
			<text transform="matrix(1 0 0 1 142.3784 116.4199)"><tspan x="0" y="0" style="fill:#2ABFD4; font-family:'Montserrat-ExtraBold'; font-size:31.7219px;">404</tspan><tspan x="7.157" y="6.526" style="fill:#2ABFD4; font-family:'Montserrat-Regular'; font-size:5.4382px;">PAGE NOT FOUND</tspan></text>
			<rect x="189.943" y="72.463" style="fill:#CCB6F3;" width="7.342" height="1.403"/>
			<rect x="199.579" y="66.523" style="fill:#CCB6F3;" width="7.342" height="7.342"/>
			<line style="fill:none;stroke:#CCB6F3;stroke-miterlimit:10;" x1="209.216" y1="73.865" x2="216.559" y2="66.523"/>
			<line style="fill:none;stroke:#CCB6F3;stroke-miterlimit:10;" x1="209.216" y1="66.523" x2="216.559" y2="73.865"/>
		</g>
		<circle style="fill:#25ADBF;" cx="416.594" cy="259.658" r="8.772"/>
		<path style="fill:none;stroke:#4B4BE3;stroke-width:5.6693;stroke-miterlimit:10;" d="M73.685,334.096
			c11.164,34.159,84.682,68.477,10.318,70.284"/>
		<path style="fill:none;stroke:#4B4BE3;stroke-width:5.6693;stroke-miterlimit:10;" d="M124.027,255.474
			c-41.286,17.99-60.291,48.179-50.342,78.622"/>
		<circle style="fill:#25ADBF;" cx="109.18" cy="263.341" r="8.772"/>
		<polygon style="fill:#F8CBA3;" points="355.538,279.412 357.108,275.094 359.594,275.094 359.594,279.412 		"/>
		<path style="fill:#4B4BE3;" d="M371.998,303.705c0,0-9.263-7.066-10.833-9.421c-1.57-2.355,0-15.527,0-15.527l-6.804-2.094
			c0,0-2.355,15.527-1.047,20.237c1.309,4.711,12.038,14.393,12.038,14.393L371.998,303.705z"/>
		<path style="fill:#F8CBA3;" d="M358.493,276.32c0,0,3.228,1.491,3.838-1.74c0.698-3.232,0.698-3.232,0.698-3.232
			c-0.137-0.115-0.342-0.246-0.556-0.207c-0.386,0.07-0.522,0.642-0.916,1.472c-0.165,0.347-0.419,0.833-0.796,1.393
			c0.306-1.671,0.617-3.364,0.714-5.063c0.009-0.166,0.011-2.465-0.654-1.569c-0.078,0.105-0.113,0.235-0.146,0.361
			c-0.376,1.437-0.756,2.872-1.135,4.308c0.54-3.472,0.58-5.277,0.12-5.417c-0.368-0.111-0.517,0.395-0.572,0.657
			c-0.314,1.506-0.627,3.012-0.941,4.518c0.021-0.488,0.309-3.852-0.35-3.964c-0.496-0.085-0.436,1.134-0.448,1.408
			c-0.04,0.908-0.08,1.816-0.119,2.723c-0.06-0.638-0.098-1.277-0.196-1.912c-0.054-0.347-0.101-0.731-0.245-1.055
			c-0.174-0.392-0.423-0.445-0.504,0.079c-0.194,1.247-0.15,2.549,0.039,3.794c0.143,0.941,0.511,2.107,0.992,3.446"/>
		<path style="fill:#29BFD4;" d="M405.074,392.13c-0.074,0.998-0.42,1.919-1.199,2.71c-1.038,0.791-2.398-0.362-3.324,0.331
			l0.507,0.616c1.058,1.287,0.894,3.184-0.37,4.269l-1.289,1.108l0.564,1.651l4.292-1.467c1.657-0.566,2.826-2.054,2.983-3.798
			l0.377-4.172L405.074,392.13z"/>
		<path style="fill:#F8CBA3;" d="M403.875,394.839c0.779-0.791,1.125-1.712,1.199-2.71l-4.768-2.339l-2.077,2.554l2.323,2.825
			C401.477,394.477,402.837,395.63,403.875,394.839z"/>
		<path style="fill:#29BFD4;" d="M363.232,400.687c-0.927,0.376-1.906,0.473-2.96,0.125c-1.169-0.58-0.737-2.31-1.768-2.834
			l-0.328,0.727c-0.685,1.519-5.565,2.792-7.226,2.916l-1.695,0.127l-0.526,1.664l4.325,1.366c1.67,0.527,4.645,0.881,6.279,0.25
			l3.908-1.51L363.232,400.687z"/>
		<path style="fill:#F8CBA3;" d="M360.272,400.812c1.054,0.348,2.033,0.251,2.96-0.125l-0.015-5.311l-3.21-0.731l-1.504,3.334
			C359.535,398.502,359.103,400.232,360.272,400.812z"/>
		<polygon style="fill:#8049E2;" points="375.594,342.118 368.992,367.938 365.401,397.895 357.285,396.778 358.055,368.699 
			361.54,337.414 374.835,337.414 		"/>
		<polygon style="fill:#8049E2;" points="369.646,340.635 377.185,372.885 397.227,395.033 404.413,389.862 388.648,368.14 
			384.637,349.204 383.668,338.581 		"/>
		<polygon style="fill:#8049E2;" points="360.903,337.988 360.693,347.429 378.829,349.11 384.401,347.06 383.416,338.642 		"/>
		<polygon style="fill:#F8CBA3;" points="401.814,279.857 403.123,275.539 405.347,275.539 405.347,279.857 		"/>
		<path style="fill:#4B4BE3;" d="M145.548,285.996c2.355,3.795,5.363,11.804,6.607,8.126c2.16,2.865-2.682,18.044-19.692,8.622
			C137.436,299.997,136.258,284.95,145.548,285.996z"/>
		<path style="fill:#F8CBA3;" d="M166.439,404.38c-0.053-0.043-0.104-0.089-0.15-0.137c-1.017-4.292-1.45-10.203-1.45-10.203
			l-3.057,2.151c0,0,0.574,4.725,0.602,8.85C163.714,405.793,165.151,405.367,166.439,404.38z"/>
		<path style="fill:#401A4C;" d="M172.868,407.519c-0.061-2.72-4.821-1.831-6.429-3.139c-1.288,0.987-2.725,1.414-4.055,0.662
			c-0.039,0.327-0.096,0.621-0.175,0.868c-0.721,2.257,0.353,2.664,2.395,2.502C167.825,408.155,172.896,408.76,172.868,407.519z"/>
		<path style="fill:#F8CBA3;" d="M127.501,401.585c-0.011-0.068-0.019-0.135-0.021-0.202c2.086-3.887,5.681-8.598,5.681-8.598
			l-3.715-0.417c0,0-2.704,3.917-5.419,7.023C124.524,400.836,125.882,401.469,127.501,401.585z"/>
		<path style="fill:#401A4C;" d="M130.231,408.198c1.758-2.077-2.394-4.568-2.73-6.613c-1.619-0.116-2.977-0.749-3.474-2.194
			c-0.246,0.219-0.483,0.401-0.707,0.534c-2.037,1.211-1.503,2.228,0.133,3.461C126.034,405.33,129.429,409.145,130.231,408.198z"/>
		<path style="fill:#E2469A;" d="M155.372,327.554c0,0,5.596,19.79-5.2,39.31c-2.805,11.419-20.852,31.917-20.852,31.917
			l-4.675-2.841c0,0,4.607-8.584,6.132-12.027c1.458-3.294,3.492-9.054,6.876-12.716c1.882-2.036,2.74-4.826,2.427-7.58
			c-1.372-12.072-0.526-27.023,2.135-31.556"/>
		<path style="fill:#E2469A;" d="M149.386,333.32l-10.119-2.094c0,0-6.506,6.626-2.721,16.007
			c3.511,8.702,9.973,15.547,15.873,21.049c1.628,1.518,2.264,1.361,2.56,3.568c1.075,8.012,3.582,14.855,4.611,21.729
			c1.17,7.812,1.17,7.812,1.17,7.812l5.792-0.849l-3.47-33.682c-4.187-13.434-13.87-26.388-13.87-26.388"/>
		<path style="fill:#F8CBA3;" d="M147.79,303.923l11.772-7.585c0,0-1.431-2.022-1.976-7.332c-0.698-6.804-2.427-11.511-2.427-11.511
			l1.439-1.57c0,0,6.745,14.118,8.053,20.007c0,4.536-6.019,8.122-15.292,13.225C147.266,307.587,147.79,303.923,147.79,303.923z"/>
		<path style="fill:#8049E2;" d="M135.604,306.627c0,0,4.885,17.098,3.664,24.6c6.979,5.059,15.876,2.442,17.621-0.349
			c-1.396-11.864-2.53-14.132-2.53-14.132c1.745-2.094,2.53-6.193-1.134-9.247c-1.856-1.547-2.182-5.672-2.182-5.672
			S132.55,300.521,135.604,306.627z"/>
		<path style="fill:#F8CBA3;" d="M156.691,278.713c0,0-3.228,1.491-3.838-1.741c-0.698-3.232-0.698-3.232-0.698-3.232
			c0.137-0.115,0.342-0.246,0.556-0.207c0.386,0.07,0.522,0.642,0.916,1.472c0.165,0.347,0.419,0.833,0.796,1.393
			c-0.306-1.671-0.617-3.364-0.714-5.063c-0.009-0.166-0.011-2.465,0.654-1.569c0.078,0.105,0.113,0.235,0.146,0.362
			c0.376,1.437,0.756,2.872,1.135,4.308c-0.54-3.472-0.58-5.277-0.12-5.417c0.368-0.111,0.517,0.395,0.572,0.657
			c0.314,1.506,0.627,3.012,0.941,4.518c-0.021-0.487-0.309-3.852,0.35-3.964c0.496-0.085,0.436,1.134,0.448,1.408
			c0.04,0.908,0.08,1.816,0.119,2.724c0.06-0.638,0.098-1.277,0.196-1.912c0.054-0.347,0.101-0.731,0.245-1.055
			c0.174-0.392,0.423-0.445,0.504,0.079c0.194,1.247,0.15,2.549-0.039,3.794c-0.143,0.941-0.511,2.107-0.992,3.446"/>
		<polygon style="fill:#25ADBF;" points="176.542,275.94 187.335,263.729 168.225,211.471 157.432,223.682 		"/>
		<path style="fill:#75D7E6;" d="M144.614,216.482c-6.701,1.422-12.913,4.036-18.345,7.731l-12.156,8.254l-10.793,12.211
			l12.156-8.254l0,0c5.433-3.695,11.644-6.309,18.345-7.731l23.611-5.01l10.793-12.211L144.614,216.482z"/>
		<path style="fill:#2ABFD4;" d="M133.821,228.693c-6.701,1.422-12.913,4.036-18.345,7.731l-12.156,8.254
			c-3.03,2.063-4.118,5.985-2.713,9.827l6.375,17.433c1.405,3.842,4.998,6.771,8.992,7.343l16.007,2.277
			c7.158,1.023,14.249,0.814,20.95-0.608l23.611-5.01l-19.11-52.258L133.821,228.693z"/>
		<g>
			<path style="fill:#401A4C;" d="M140.867,276.963c-2.204,0.006-4.408-0.119-6.599-0.365c-2.189-0.264-4.367-0.596-6.552-0.891
				l-6.549-0.911l-3.274-0.455c-0.542-0.083-1.097-0.134-1.638-0.25c-0.55-0.127-1.07-0.336-1.558-0.608
				c-0.973-0.546-1.808-1.339-2.393-2.293c-0.298-0.474-0.5-1.007-0.684-1.521l-0.573-1.551l-2.29-6.202l-2.29-6.202l-1.142-3.107
				c-0.357-1.05-0.403-2.357,0.368-3.302c0.399-0.469,0.906-0.699,1.343-1.031l1.365-0.933l2.729-1.866l5.458-3.731
				c1.806-1.251,3.647-2.501,5.602-3.547c1.947-1.057,3.973-1.967,6.051-2.736c2.081-0.761,4.212-1.383,6.376-1.859l6.467-1.382
				l12.944-2.704l0.2-0.042l0.069,0.191l15.345,42.376l0.036,0.1l-0.104,0.022l-14.272,2.981c-2.38,0.484-4.749,1.049-7.164,1.353
				C145.729,276.818,143.297,276.968,140.867,276.963z M140.867,276.963c2.43-0.01,4.859-0.175,7.265-0.512
				c2.41-0.318,4.773-0.897,7.151-1.397l14.253-3.072l-0.067,0.122l-15.613-42.278l0.269,0.149l-12.926,2.786l-6.467,1.368
				c-2.144,0.457-4.257,1.059-6.32,1.799c-2.061,0.748-4.07,1.637-6.004,2.67c-1.941,1.023-3.761,2.242-5.585,3.489l-5.481,3.697
				l-2.741,1.848l-1.37,0.924c-0.441,0.325-0.963,0.579-1.281,0.96c-0.67,0.801-0.661,1.997-0.327,2.991l1.12,3.105l2.251,6.216
				l2.251,6.217l0.563,1.554c0.184,0.523,0.371,1.028,0.659,1.492c0.561,0.929,1.37,1.708,2.315,2.245
				c0.471,0.268,0.984,0.476,1.507,0.6c0.537,0.119,1.082,0.171,1.628,0.259l3.271,0.476l6.543,0.952
				c2.182,0.309,4.36,0.654,6.545,0.932C136.461,276.816,138.663,276.955,140.867,276.963z"/>
		</g>
		<path style="fill:#75D7E6;" d="M175.206,259.974c0.609,1.678,1.416,2.647,1.991,2.504c0.085-0.019,0.169-0.042,0.253-0.063
			c6.226-1.546,30.514-7.376,35.475-8.523c3.001-0.694,8.05-2.05,7.437-6.102c-0.415-2.741-3.659-3.457-5.95-2.959
			c-3.471,0.755-33.782,8.244-39.214,9.593c-0.134,0.033-0.255,0.127-0.358,0.286C174.291,255.554,174.456,257.91,175.206,259.974z"
			/>
		<path style="fill:#75D7E6;" d="M165.341,231.975c0.609,1.678,1.415,2.647,1.991,2.504c0.085-0.019,0.169-0.042,0.253-0.063
			c6.226-1.546,30.514-7.377,35.475-8.523c3.001-0.694,8.05-2.05,7.437-6.102c-0.415-2.741-3.659-3.457-5.95-2.959
			c-3.47,0.755-33.782,8.244-39.214,9.593c-0.134,0.033-0.255,0.127-0.359,0.286C164.427,227.554,164.591,229.91,165.341,231.975z"
			/>
		<polygon style="fill:#25ADBF;" points="348.824,273.105 338.03,260.894 357.141,208.637 367.934,220.847 		"/>
		<path style="fill:#75D7E6;" d="M380.752,213.647c6.701,1.422,12.913,4.036,18.345,7.731l12.156,8.254l10.793,12.211l-12.156-8.254
			h0c-5.433-3.695-11.644-6.309-18.345-7.731l-23.611-5.01l-10.793-12.211L380.752,213.647z"/>
		<path style="fill:#2ABFD4;" d="M391.545,225.858c6.701,1.422,12.913,4.036,18.345,7.731l12.156,8.254
			c3.03,2.063,4.118,5.985,2.713,9.827l-6.375,17.433c-1.405,3.842-4.998,6.771-8.992,7.343l-16.007,2.277
			c-7.158,1.023-14.249,0.814-20.95-0.608l-23.611-5.011l19.111-52.257L391.545,225.858z"/>
		<g>
			<path style="fill:#401A4C;" d="M384.499,274.128c-2.43,0.005-4.861-0.144-7.271-0.467c-2.415-0.304-4.784-0.868-7.163-1.353
				l-14.272-2.982l-0.103-0.022l0.036-0.1l15.346-42.376l0.069-0.189l0.199,0.042l12.944,2.704l6.47,1.379
				c2.158,0.474,4.296,1.098,6.375,1.858c2.078,0.769,4.103,1.68,6.051,2.737c1.954,1.046,3.794,2.296,5.602,3.548l5.458,3.731
				l2.729,1.866l1.365,0.933c0.444,0.336,0.934,0.555,1.344,1.03c0.771,0.946,0.724,2.253,0.367,3.303l-1.142,3.107l-2.29,6.202
				l-2.29,6.202l-0.573,1.551c-0.184,0.514-0.384,1.045-0.684,1.521c-0.585,0.954-1.421,1.747-2.394,2.293
				c-0.487,0.272-1.011,0.482-1.556,0.608c-0.551,0.118-1.094,0.167-1.64,0.251l-3.274,0.455l-6.549,0.911
				c-2.184,0.295-4.363,0.627-6.552,0.891C388.907,274.009,386.703,274.134,384.499,274.128z M384.499,274.128
				c2.204-0.008,4.407-0.146,6.594-0.406c2.185-0.278,4.363-0.624,6.545-0.932l6.543-0.952l3.271-0.476
				c0.542-0.087,1.099-0.141,1.625-0.259c0.528-0.126,1.036-0.333,1.509-0.601c0.945-0.537,1.754-1.316,2.315-2.245
				c0.286-0.461,0.475-0.969,0.659-1.492l0.563-1.554l2.251-6.217l2.251-6.217l1.12-3.105c0.334-0.994,0.343-2.19-0.326-2.99
				c-0.308-0.372-0.846-0.639-1.281-0.96l-1.37-0.924l-2.741-1.848l-5.482-3.697c-1.823-1.245-3.643-2.464-5.585-3.489
				c-1.934-1.034-3.944-1.922-6.004-2.67c-2.066-0.741-4.172-1.341-6.322-1.799l-6.465-1.372l-12.927-2.786l0.267-0.148
				l-15.612,42.278l-0.067-0.121l14.253,3.071c2.378,0.5,4.741,1.079,7.151,1.397C379.639,273.953,382.069,274.118,384.499,274.128z
				"/>
		</g>
		<path style="fill:#F8CBA3;" d="M141.492,303.661c0,0-7.458-10.337-4.056-14.524c3.402-4.187,7.507-1.697,10.296,3.535
			c2.789,5.232-1.671,6.671-1.671,6.671l1.729,4.58C147.79,303.923,144.894,306.147,141.492,303.661z"/>
		<path style="fill:#4B4BE3;" d="M138.482,293.064c0.486,2.748,3.533,12.298-6.019,9.681c2.094-1.439,2.094-3.01,0.654-7.851
			c-1.439-4.841,3.664-12.823,12.431-8.898C145.679,287.043,148.649,291.23,138.482,293.064z"/>
		<path style="fill:#F8CBA3;" d="M132.899,279.18c0,0,2.81,1.298,3.342-1.515c0.607-2.813,0.607-2.813,0.607-2.813
			c-0.12-0.1-0.298-0.214-0.484-0.18c-0.336,0.061-0.454,0.559-0.797,1.282c-0.143,0.302-0.365,0.725-0.693,1.213
			c0.266-1.455,0.537-2.929,0.621-4.408c0.008-0.145,0.01-2.146-0.569-1.366c-0.068,0.091-0.098,0.205-0.127,0.315
			c-0.327,1.251-0.658,2.501-0.988,3.751c0.47-3.023,0.505-4.594,0.104-4.716c-0.321-0.096-0.451,0.344-0.498,0.572
			c-0.273,1.311-0.546,2.622-0.819,3.933c0.018-0.424,0.269-3.353-0.305-3.451c-0.432-0.074-0.38,0.987-0.39,1.226
			c-0.035,0.79-0.069,1.581-0.104,2.371c-0.053-0.556-0.085-1.112-0.171-1.664c-0.047-0.302-0.088-0.636-0.213-0.918
			c-0.151-0.341-0.368-0.388-0.439,0.069c-0.169,1.085-0.131,2.219,0.034,3.303c0.124,0.819,0.445,1.834,0.864,3"/>
		<path style="fill:#F8CBA3;" d="M404.191,277.457c0,0-3.228,1.491-3.838-1.741c-0.698-3.232-0.698-3.232-0.698-3.232
			c0.137-0.115,0.342-0.246,0.556-0.207c0.386,0.07,0.522,0.641,0.916,1.472c0.165,0.347,0.419,0.833,0.796,1.393
			c-0.306-1.671-0.617-3.364-0.714-5.063c-0.009-0.166-0.011-2.465,0.654-1.569c0.078,0.105,0.113,0.235,0.146,0.362
			c0.376,1.437,0.756,2.872,1.136,4.308c-0.54-3.472-0.58-5.277-0.12-5.417c0.368-0.111,0.517,0.395,0.572,0.657
			c0.314,1.506,0.627,3.012,0.941,4.518c-0.021-0.487-0.309-3.851,0.35-3.964c0.496-0.085,0.436,1.134,0.448,1.408
			c0.04,0.908,0.08,1.816,0.119,2.723c0.06-0.638,0.098-1.277,0.196-1.912c0.054-0.347,0.101-0.731,0.245-1.055
			c0.174-0.392,0.423-0.446,0.504,0.079c0.194,1.247,0.15,2.549-0.039,3.794c-0.143,0.941-0.511,2.107-0.992,3.446"/>
		<path style="fill:#F8CBA3;" d="M138.582,302.793l-11.699-8.375c0,0,1.975-1.365,3.021-6.599c1.047-5.234,5.004-9.103,5.004-9.103
			l-2.095-1.744c0,0-10.641,11.38-11.949,17.268c0,4.536,3.879,7.47,15.417,14.917C140.928,309.157,138.582,302.793,138.582,302.793
			z"/>
		<path style="fill:#4B4BE3;" d="M366.922,302.658l17.335-1.142c0,0,0.325,8.47,0,13.965c-0.325,5.496-3.836,18.581,0.144,23.553
			c-7.273,5.496-23.237,5.757-24.807,0C361.95,322.809,360.38,305.537,366.922,302.658z"/>
		<path style="fill:#4B4BE3;" d="M382.624,302.135l12.626-4.021l4.864-18.912h6.412c0,0-0.807,19.697-3.163,22.314
			c-2.355,2.617-19.105,13.965-19.105,13.965S379.222,305.537,382.624,302.135z"/>
		<path style="fill:#F8CBA3;" d="M370.324,303.705l1.674-4.711c-3.375-0.523-4.738-4.972,0-10.599
			c4.738-5.627,11.673-1.963,11.411,1.308c-0.262,3.271-4.711,9.421-4.711,9.421l-0.008,2.758
			C378.69,301.883,375.689,306.322,370.324,303.705z"/>
		<path style="fill:#138494;" d="M351.069,252.031c-0.498,3.009-2.34,5.721-4.115,6.057c-1.775,0.336-2.811-1.831-2.313-4.84
			c0.498-3.009,2.34-5.721,4.115-6.057C350.531,246.855,351.567,249.022,351.069,252.031z"/>
		<path style="fill:#138494;" d="M360.857,228.667c-0.498,3.009-2.34,5.721-4.115,6.057c-1.775,0.336-2.811-1.831-2.313-4.84
			c0.498-3.009,2.34-5.721,4.115-6.057C360.319,223.491,361.355,225.658,360.857,228.667z"/>
		<path style="fill:#E2469A;" d="M379.575,297.847c-0.389-1.199,2.117-3.999,0.896-4.697c-1.221-0.698-2.53,1.309-2.53,1.309
			l-1.047-0.479c0,0,1.483-1.614,1.134-3.184c-0.349-1.57,0.794-2.443,0.794-2.443s-8.385,0.095-5.244-4.703
			c3.14-4.798,11.08,1.65,10.469,5.139C388.584,290.795,379.948,300.129,379.575,297.847z"/>
		<g>
			<path style="fill:#401A4C;" d="M162.849,217.148c0,0-3.607,0.943-9.018,2.358c-2.711,0.684-5.874,1.481-9.264,2.336
				c-1.699,0.414-3.454,0.843-5.237,1.278c-1.773,0.427-3.555,0.955-5.313,1.545c-3.518,1.182-6.915,2.716-9.935,4.443
				c-1.512,0.862-2.928,1.765-4.272,2.643c-1.345,0.87-2.617,1.693-3.791,2.452c-4.716,3.007-7.86,5.011-7.86,5.011
				s3.075-2.108,7.688-5.271c1.158-0.783,2.413-1.631,3.74-2.528c1.324-0.895,2.726-1.859,4.252-2.729
				c3.036-1.762,6.455-3.334,9.998-4.55c1.771-0.611,3.577-1.111,5.373-1.538c1.785-0.422,3.541-0.837,5.241-1.239
				c3.404-0.794,6.581-1.536,9.304-2.171C159.21,217.963,162.849,217.148,162.849,217.148z"/>
		</g>
		<g>
			<path style="fill:#401A4C;" d="M363.593,214.313c0,0,3.638,0.815,9.096,2.038c2.723,0.635,5.9,1.377,9.304,2.171
				c1.7,0.402,3.456,0.817,5.241,1.239c1.796,0.426,3.601,0.927,5.373,1.538c3.543,1.217,6.961,2.788,9.998,4.551
				c1.525,0.869,2.927,1.834,4.252,2.729c1.327,0.897,2.582,1.745,3.74,2.528c4.613,3.163,7.688,5.271,7.688,5.271
				s-3.144-2.005-7.86-5.011c-1.174-0.759-2.446-1.582-3.791-2.452c-1.343-0.878-2.76-1.781-4.272-2.643
				c-3.021-1.726-6.418-3.261-9.935-4.443c-1.758-0.59-3.54-1.117-5.313-1.545c-1.784-0.435-3.539-0.864-5.237-1.278
				c-3.389-0.855-6.552-1.652-9.264-2.336C367.2,215.256,363.593,214.313,363.593,214.313z"/>
		</g>
		<path style="fill:#2ABFD4;" d="M171.138,383.328c0,0-15.317-24.578,6.877-11.228c-1.334-68.915,20.415-22.649,14.77-2.999
			c25.248-65.09,28.037-13.274,11.493,3.523c31.796-27.691,8.199,10.704,8.199,10.704H171.138"/>
		<g>
			<path style="fill:#401A4C;" d="M141.559,299.573c0,0,0.385,0.116,0.954,0.191c0.281,0.052,0.615,0.058,0.963,0.061
				c0.349-0.002,0.718-0.03,1.08-0.101c0.365-0.057,0.716-0.172,1.049-0.282c0.322-0.135,0.638-0.244,0.886-0.391
				c0.259-0.126,0.47-0.249,0.619-0.336c0.151-0.085,0.244-0.128,0.244-0.128s-0.059,0.08-0.173,0.213
				c-0.121,0.124-0.267,0.339-0.513,0.517c-0.231,0.196-0.523,0.404-0.864,0.584c-0.347,0.169-0.739,0.305-1.147,0.382
				c-0.409,0.067-0.826,0.088-1.209,0.04c-0.384-0.041-0.73-0.147-1.015-0.251C141.86,299.853,141.559,299.573,141.559,299.573z"/>
		</g>
		<g>
			<path style="fill:#401A4C;" d="M135.263,292.541c0,0,0.733-0.09,1.809-0.278c0.54-0.08,1.16-0.228,1.821-0.375
				c0.654-0.173,1.354-0.351,2.017-0.616c0.677-0.233,1.309-0.563,1.865-0.917c0.289-0.166,0.509-0.395,0.758-0.572
				c0.222-0.203,0.394-0.432,0.577-0.627c0.147-0.218,0.26-0.433,0.382-0.617c0.136-0.179,0.154-0.376,0.218-0.521
				c0.111-0.302,0.174-0.475,0.174-0.475s-0.024,0.183-0.067,0.503c-0.038,0.156-0.026,0.37-0.13,0.575
				c-0.088,0.21-0.17,0.463-0.31,0.711c-0.169,0.226-0.333,0.496-0.549,0.742c-0.24,0.217-0.462,0.5-0.764,0.689
				c-0.294,0.199-0.588,0.43-0.929,0.58c-0.327,0.18-0.672,0.331-1.025,0.46c-0.703,0.267-1.43,0.443-2.115,0.573
				c-0.687,0.116-1.335,0.172-1.888,0.203C135.998,292.633,135.263,292.541,135.263,292.541z"/>
		</g>
		<g>
			<path style="fill:#401A4C;" d="M143.191,286.213c0,0-0.024,0.568-0.346,1.355c-0.156,0.393-0.392,0.834-0.7,1.274
				c-0.177,0.201-0.328,0.44-0.545,0.625c-0.199,0.203-0.418,0.391-0.656,0.557c-0.226,0.182-0.492,0.302-0.739,0.442
				c-0.247,0.141-0.525,0.204-0.774,0.305c-0.254,0.088-0.517,0.112-0.755,0.162c-0.238,0.058-0.474,0.036-0.684,0.056
				c-0.422,0.044-0.773-0.043-1.014-0.062c-0.24-0.037-0.377-0.058-0.377-0.058s0.138-0.019,0.379-0.052
				c0.24-0.026,0.581-0.053,0.976-0.145c0.197-0.048,0.417-0.057,0.632-0.144c0.216-0.078,0.45-0.138,0.679-0.229
				c0.454-0.194,0.93-0.417,1.346-0.735c0.219-0.144,0.421-0.31,0.607-0.49c0.2-0.165,0.359-0.366,0.535-0.541
				c0.146-0.199,0.32-0.371,0.446-0.563c0.138-0.184,0.258-0.367,0.359-0.542C142.989,286.736,143.191,286.213,143.191,286.213z"/>
		</g>
		<g>
			<path style="fill:#401A4C;" d="M139.896,287.251c0,0-0.4,0.112-0.96,0.327c-0.283,0.097-0.597,0.248-0.927,0.406
				c-0.326,0.167-0.669,0.349-0.979,0.577c-0.321,0.212-0.614,0.463-0.867,0.719c-0.251,0.257-0.493,0.506-0.647,0.757
				c-0.354,0.476-0.529,0.858-0.548,0.849c0,0,0.012-0.102,0.049-0.28c0.039-0.177,0.08-0.441,0.22-0.725
				c0.057-0.149,0.132-0.303,0.23-0.457c0.091-0.158,0.185-0.331,0.323-0.477c0.244-0.319,0.568-0.608,0.917-0.853
				c0.352-0.242,0.735-0.434,1.107-0.569c0.372-0.137,0.736-0.204,1.043-0.256C139.48,287.181,139.896,287.251,139.896,287.251z"/>
		</g>
		<g>
			<path style="fill:#401A4C;" d="M136.849,295.281c0,0,0.203,0.192,0.408,0.543c0.203,0.349,0.427,0.851,0.512,1.392
				c0.038,0.27,0.067,0.543,0.05,0.801c-0.005,0.257-0.066,0.496-0.111,0.694c-0.046,0.2-0.13,0.355-0.182,0.462
				c-0.054,0.107-0.093,0.163-0.093,0.163s-0.01-0.071-0.015-0.188c0.007-0.115-0.022-0.281-0.028-0.471
				c-0.027-0.383-0.098-0.875-0.18-1.367c-0.083-0.492-0.178-0.991-0.25-1.374C136.889,295.553,136.849,295.281,136.849,295.281z"/>
		</g>
		<g>
			<path style="fill:#401A4C;" d="M143.191,317.903c0,0,0.542,0.004,1.337,0.032c0.397,0.021,0.861,0.022,1.351,0.02
				c0.49-0.004,1.011-0.014,1.516-0.087c0.256-0.022,0.501-0.077,0.744-0.13c0.23-0.078,0.473-0.125,0.673-0.236
				c0.216-0.087,0.389-0.217,0.568-0.331c0.145-0.146,0.309-0.271,0.397-0.436c0.114-0.149,0.192-0.303,0.252-0.448
				c0.075-0.14,0.117-0.272,0.137-0.385c0.063-0.226,0.099-0.355,0.099-0.355s0.009,0.132,0.01,0.372
				c0.007,0.121-0.003,0.266-0.045,0.431c-0.025,0.17-0.069,0.36-0.178,0.547c-0.077,0.205-0.237,0.378-0.39,0.578
				c-0.182,0.164-0.376,0.358-0.62,0.472c-0.469,0.272-1.027,0.418-1.574,0.485c-0.551,0.067-1.1,0.068-1.607,0.023
				c-0.508-0.035-0.973-0.13-1.369-0.202c-0.397-0.073-0.721-0.176-0.946-0.236C143.319,317.943,143.191,317.903,143.191,317.903z"
				/>
		</g>
		<g>
			<path style="fill:#401A4C;" d="M149.611,341.021c0,0,0.467,0.565,1.112,1.449c0.643,0.885,1.476,2.08,2.256,3.309
				c0.785,1.226,1.517,2.485,2.046,3.442c0.529,0.957,0.843,1.62,0.843,1.62s-0.468-0.565-1.112-1.449
				c-0.644-0.884-1.476-2.08-2.255-3.309c-0.785-1.226-1.516-2.486-2.046-3.443C149.926,341.684,149.611,341.021,149.611,341.021z"
				/>
		</g>
		<g>
			<path style="fill:#401A4C;" d="M139.452,353.8c0,0,0.763,0.746,1.864,1.901c0.542,0.585,1.195,1.249,1.862,1.989
				c0.671,0.736,1.386,1.522,2.102,2.307c1.405,1.592,2.81,3.185,3.864,4.379c0.533,0.591,0.963,1.097,1.291,1.426
				c0.318,0.337,0.524,0.508,0.524,0.508s-0.055-0.037-0.159-0.106c-0.102-0.071-0.265-0.165-0.439-0.32
				c-0.361-0.297-0.874-0.727-1.446-1.286c-0.572-0.559-1.248-1.203-1.929-1.932c-0.679-0.731-1.403-1.511-2.127-2.291
				c-0.697-0.803-1.395-1.607-2.048-2.36c-0.652-0.754-1.226-1.489-1.733-2.104C140.078,354.664,139.452,353.8,139.452,353.8z"/>
		</g>
		<g>
			<path style="fill:#401A4C;" d="M184.577,338.554c0,0-0.042,2.683-0.041,6.704c-0.018,2.01,0.015,4.356,0.032,6.867
				c0.017,2.512,0.083,5.19,0.18,7.867c0.057,1.338,0.114,2.675,0.17,3.992c0.091,1.314,0.141,2.611,0.261,3.859
				c0.13,1.247,0.183,2.462,0.339,3.6c0.144,1.14,0.236,2.226,0.43,3.209c0.184,0.984,0.284,1.904,0.501,2.689
				c0.203,0.787,0.316,1.497,0.522,2.044c0.401,1.102,0.63,1.731,0.63,1.731s-0.262-0.618-0.72-1.7
				c-0.235-0.541-0.384-1.242-0.63-2.025c-0.261-0.782-0.41-1.695-0.616-2.683c-0.224-0.986-0.348-2.071-0.526-3.213
				c-0.191-1.141-0.286-2.355-0.419-3.608c-0.132-1.253-0.195-2.553-0.299-3.871c-0.068-1.32-0.138-2.661-0.208-4.002
				c-0.072-2.684-0.112-5.369-0.105-7.885c0.005-2.516,0.077-4.864,0.141-6.875c0.059-2.012,0.176-3.686,0.24-4.857
				C184.534,339.224,184.577,338.554,184.577,338.554z"/>
		</g>
		<g>
			<path style="fill:#401A4C;" d="M210.936,340.852c0,0-0.031,0.157-0.09,0.452c-0.074,0.293-0.182,0.722-0.32,1.268
				c-0.293,1.086-0.694,2.645-1.261,4.489c-0.559,1.847-1.222,3.999-2,6.282c-0.777,2.284-1.65,4.705-2.555,7.115
				c-0.483,1.194-0.947,2.395-1.441,3.562c-0.507,1.162-0.964,2.323-1.482,3.415c-0.504,1.098-0.983,2.162-1.507,3.14
				c-0.507,0.985-0.974,1.921-1.475,2.75c-0.479,0.84-0.917,1.611-1.384,2.246c-0.459,0.638-0.799,1.235-1.183,1.653
				c-0.727,0.86-1.142,1.352-1.142,1.352s0.388-0.512,1.066-1.409c0.357-0.433,0.666-1.05,1.086-1.706
				c0.426-0.654,0.819-1.445,1.277-2.29c0.472-0.837,0.91-1.784,1.383-2.779c0.491-0.986,0.929-2.064,1.429-3.158
				c0.505-1.091,0.949-2.254,1.442-3.416c0.481-1.168,0.93-2.371,1.401-3.564c0.927-2.394,1.822-4.801,2.62-7.073
				c0.797-2.272,1.558-4.388,2.161-6.218c0.613-1.827,1.133-3.347,1.473-4.419c0.166-0.536,0.297-0.958,0.386-1.245
				C210.896,341.008,210.936,340.852,210.936,340.852z"/>
		</g>
		<g>
			<path style="fill:#401A4C;" d="M217.224,367.211c0,0-0.378,1.048-1.193,2.504c-0.411,0.724-0.908,1.564-1.514,2.415
				c-0.609,0.848-1.298,1.726-2.043,2.557c-0.765,0.813-1.566,1.595-2.38,2.254c-0.397,0.342-0.799,0.649-1.204,0.909
				c-0.399,0.267-0.762,0.537-1.134,0.733c-0.361,0.211-0.698,0.394-0.996,0.554c-0.31,0.137-0.581,0.256-0.804,0.354
				c-0.447,0.187-0.703,0.295-0.703,0.295s0.238-0.143,0.653-0.393c0.208-0.122,0.46-0.27,0.749-0.439
				c0.274-0.194,0.583-0.413,0.927-0.639c0.35-0.216,0.689-0.509,1.061-0.797c0.377-0.281,0.744-0.615,1.132-0.951
				c0.782-0.663,1.548-1.449,2.28-2.261c0.749-0.798,1.447-1.645,2.066-2.467c0.614-0.824,1.191-1.596,1.639-2.29
				C216.683,368.179,217.224,367.211,217.224,367.211z"/>
		</g>
		<g>
			<path style="fill:#401A4C;" d="M171.881,371.978c0,0,0.167,0.034,0.44,0.152c0.269,0.123,0.66,0.301,1.077,0.595
				c0.419,0.289,0.901,0.643,1.365,1.078c0.474,0.426,0.935,0.924,1.375,1.438c0.876,1.033,1.613,2.168,2.111,3.046
				c0.262,0.431,0.427,0.823,0.567,1.081c0.126,0.266,0.198,0.418,0.198,0.418s-0.428-0.524-1.031-1.323
				c-0.302-0.4-0.661-0.859-1.049-1.346c-0.382-0.491-0.797-1.009-1.228-1.51c-0.421-0.51-0.864-1.001-1.291-1.448
				c-0.427-0.448-0.832-0.861-1.21-1.181C172.469,372.311,171.881,371.978,171.881,371.978z"/>
		</g>
		<g>
			<path style="fill:#401A4C;" d="M376.175,297.342c0,0,0.029,0.337-0.205,0.788c-0.128,0.211-0.293,0.47-0.549,0.667
				c-0.249,0.201-0.56,0.362-0.883,0.456c-0.653,0.192-1.323,0.127-1.787,0.013c-0.236-0.042-0.42-0.143-0.551-0.183
				c-0.13-0.051-0.201-0.088-0.201-0.088s0.326-0.03,0.783-0.047c0.229-0.01,0.493-0.033,0.766-0.071
				c0.273-0.033,0.561-0.079,0.83-0.167c0.276-0.068,0.528-0.191,0.757-0.319c0.226-0.133,0.426-0.286,0.578-0.445
				C376.02,297.631,376.175,297.342,376.175,297.342z"/>
		</g>
		<g>
			<path style="fill:#401A4C;" d="M375.082,284.708c0,0,0.281-0.136,0.737-0.208c0.227-0.022,0.497-0.065,0.787-0.044
				c0.291,0.006,0.599,0.071,0.904,0.15c0.298,0.104,0.595,0.228,0.838,0.406c0.123,0.086,0.239,0.172,0.33,0.279
				c0.092,0.103,0.189,0.186,0.252,0.289c0.286,0.384,0.316,0.712,0.331,0.7c0,0-0.063-0.05-0.158-0.14
				c-0.082-0.1-0.237-0.206-0.401-0.337c-0.165-0.132-0.38-0.248-0.609-0.362c-0.229-0.113-0.486-0.212-0.749-0.293
				c-0.529-0.156-1.09-0.264-1.524-0.33C375.388,284.753,375.082,284.708,375.082,284.708z"/>
		</g>
		<g>
			<path style="fill:#401A4C;" d="M379.261,284.659c0,0,0.269-0.074,0.679-0.038c0.2,0.033,0.445,0.056,0.689,0.156
				c0.248,0.087,0.495,0.235,0.719,0.417c0.213,0.194,0.411,0.418,0.519,0.67c0.123,0.242,0.169,0.497,0.183,0.703
				c0.032,0.208-0.017,0.382-0.033,0.498c-0.022,0.117-0.042,0.181-0.042,0.181c-0.015,0.003-0.079-0.268-0.235-0.605
				c-0.058-0.174-0.181-0.351-0.304-0.526c-0.121-0.178-0.28-0.344-0.456-0.491c-0.346-0.3-0.78-0.532-1.123-0.698
				C379.514,284.766,379.261,284.659,379.261,284.659z"/>
		</g>
		<g>
			<path style="fill:#401A4C;" d="M384.257,315.482c0,0-0.044,0.028-0.126,0.081c-0.078,0.05-0.22,0.122-0.411,0.138
				c-0.389,0.05-0.953-0.237-1.322-0.774c-0.786-1.052-1.19-2.772-1.195-4.456c-0.004-0.845,0.082-1.688,0.233-2.461
				c0.146-0.775,0.368-1.478,0.579-2.068c0.21-0.592,0.449-1.058,0.607-1.385c0.175-0.319,0.275-0.502,0.275-0.502
				s-0.063,0.198-0.173,0.544c-0.115,0.343-0.246,0.843-0.404,1.437c-0.301,1.192-0.563,2.812-0.55,4.432
				c0.011,1.61,0.281,3.253,0.892,4.281c0.297,0.512,0.705,0.835,1.057,0.843C384.061,315.604,384.259,315.468,384.257,315.482z"/>
		</g>
		<g>
			<path style="fill:#401A4C;" d="M395.25,298.114c0,0,0.007,0.284-0.046,0.691c-0.055,0.406-0.155,0.94-0.316,1.455
				c-0.155,0.517-0.37,1.015-0.553,1.382c-0.184,0.367-0.35,0.598-0.35,0.598s-0.008-0.285,0.045-0.691
				c0.054-0.407,0.155-0.94,0.317-1.455c0.155-0.517,0.371-1.015,0.554-1.382C395.084,298.346,395.25,298.114,395.25,298.114z"/>
		</g>
		<g>
			<path style="fill:#401A4C;" d="M372.835,354.278c0,0-0.363,0.031-0.896-0.027c-0.531-0.058-1.237-0.186-1.91-0.427
				c-0.676-0.231-1.313-0.574-1.756-0.88c-0.445-0.305-0.688-0.578-0.688-0.578s0.089,0.024,0.235,0.077
				c0.141,0.063,0.358,0.119,0.6,0.217c0.492,0.179,1.145,0.399,1.796,0.629c0.651,0.227,1.304,0.466,1.796,0.653
				C372.505,354.13,372.835,354.278,372.835,354.278z"/>
		</g>
		<g>
			<path style="fill:#401A4C;" d="M402.771,373.095c0,0,0.655,0.118,1.617,0.359c0.962,0.242,2.235,0.593,3.488,1.004
				c1.255,0.405,2.492,0.869,3.411,1.24c0.92,0.371,1.519,0.662,1.519,0.662s-0.655-0.117-1.617-0.358
				c-0.962-0.242-2.235-0.593-3.488-1.005c-1.255-0.405-2.491-0.871-3.411-1.241C403.37,373.385,402.771,373.095,402.771,373.095z"
				/>
		</g>
		<g>
			<path style="fill:#401A4C;" d="M411.719,370.556c0,0,0.519,0.073,1.277,0.246c0.757,0.174,1.758,0.434,2.74,0.755
				c0.983,0.314,1.948,0.688,2.664,0.991c0.716,0.303,1.179,0.548,1.179,0.548s-0.519-0.072-1.277-0.245
				c-0.758-0.174-1.758-0.435-2.74-0.755c-0.983-0.314-1.947-0.689-2.663-0.991C412.182,370.801,411.719,370.556,411.719,370.556z"
				/>
		</g>
		<g>
			<path style="fill:#401A4C;" d="M93.677,366.309c0,0,0.483,0.405,1.158,1.057c0.673,0.653,1.55,1.544,2.379,2.476
				c0.834,0.928,1.621,1.898,2.194,2.642c0.572,0.743,0.92,1.269,0.92,1.269s-0.484-0.405-1.158-1.057
				c-0.674-0.653-1.549-1.544-2.378-2.477c-0.834-0.928-1.62-1.899-2.193-2.642C94.025,366.835,93.677,366.309,93.677,366.309z"/>
		</g>
		<g>
			<path style="fill:#401A4C;" d="M100.327,365.29c0,0,0.475,0.385,1.137,1.007c0.661,0.624,1.522,1.474,2.336,2.368
				c0.819,0.889,1.591,1.821,2.153,2.536c0.562,0.715,0.902,1.222,0.902,1.222s-0.475-0.384-1.138-1.007
				c-0.662-0.623-1.522-1.475-2.336-2.369c-0.819-0.889-1.59-1.822-2.153-2.536C100.669,365.797,100.327,365.29,100.327,365.29z"/>
		</g>
		<path style="fill:#FFFFFF;" d="M184.366,172.286h53.246c0,0-0.064-13.403-13.584-8.808c-13.52,4.595-9.896-10.763-27.054-9.598
			C181.306,154.945,173.322,165.996,184.366,172.286z"/>
		<path style="fill:#FFFFFF;" d="M266.939,94.704h59.369c0,0-4.564-9.783-10.751-4.892c-6.186,4.892-6.421-16.533-18.934-7.668
			C284.11,91.01,262.656,57.722,266.939,94.704z"/>
	</g>
</g>
<g id="DESIGNED_BY_FREEPIK">
	<g>
		<g id="XMLID_1_">
			<g id="XMLID_20_">
				<path id="XMLID_28_" style="fill:#1D262D;" d="M260.104,465.465c-0.432,0.443-0.803,0.931-1.108,1.453l-0.465-0.241
					c-0.067-0.298-0.349-0.503-0.659-0.466c-0.331,0.039-0.568,0.339-0.529,0.67s0.339,0.568,0.67,0.529
					c0.065-0.008,0.127-0.026,0.184-0.052l0.451,0.234c-0.251,0.554-0.433,1.139-0.539,1.744l0.746,0.132
					c0.23-1.306,0.85-2.507,1.792-3.473L260.104,465.465z"/>
				<path id="XMLID_27_" style="fill:#1D262D;" d="M265.592,463.163c-0.171,0-0.341,0.006-0.51,0.017l-0.074-0.626
					c0.188-0.149,0.296-0.389,0.266-0.645c-0.046-0.393-0.402-0.674-0.795-0.628s-0.674,0.402-0.628,0.795
					c0.03,0.254,0.189,0.461,0.405,0.564l0.073,0.624c-0.714,0.116-1.403,0.332-2.06,0.646l0.327,0.684
					c0.934-0.447,1.942-0.673,2.995-0.673c0.496,0,0.993,0.053,1.475,0.158l0.161-0.741
					C266.693,463.222,266.142,463.163,265.592,463.163z"/>
				<path id="XMLID_26_" style="fill:#1D262D;" d="M272.194,465.711c0.331-0.04,0.566-0.341,0.525-0.672
					c-0.04-0.331-0.341-0.566-0.672-0.526c-0.309,0.038-0.535,0.304-0.53,0.609l-0.416,0.363c-0.418-0.43-0.89-0.813-1.408-1.139
					l-0.404,0.641c1.134,0.715,2.021,1.726,2.563,2.925l0.691-0.313c-0.251-0.554-0.568-1.072-0.942-1.545l0.402-0.351
					C272.065,465.716,272.129,465.719,272.194,465.711z"/>
				<path id="XMLID_25_" style="fill:#1D262D;" d="M265.044,473.372c-0.386,0.023-0.775,0.035-1.157,0.035
					c-0.88,0-1.733-0.061-2.478-0.179c-0.39-0.062-0.846-0.155-1.27-0.292c1.046,1.861,3.069,3.125,5.388,3.125
					c2.855,0,5.262-1.916,5.95-4.504c-0.682,0.449-1.505,0.825-2.459,1.123C267.839,473.047,266.464,473.286,265.044,473.372z"/>
				<path id="XMLID_21_" style="fill:#1D262D;" d="M265.592,464.68c-3.352,0-6.08,2.666-6.08,5.943c0,0.426,0.046,0.849,0.137,1.261
					c0.674,0.483,2.706,0.89,5.348,0.731c2.879-0.173,5.297-0.957,6.672-2.159c-0.005-0.195-0.021-0.39-0.045-0.582
					C271.244,466.913,268.65,464.68,265.592,464.68z M263.432,471.194c-1.02,0-1.85-0.83-1.85-1.85c0-1.02,0.83-1.85,1.85-1.85
					c1.02,0,1.85,0.83,1.85,1.85C265.282,470.365,264.452,471.194,263.432,471.194z M268.17,470.286c-0.75,0-1.36-0.61-1.36-1.36
					s0.61-1.361,1.36-1.361c0.75,0,1.361,0.61,1.361,1.361S268.92,470.286,268.17,470.286z"/>
			</g>
			<path id="XMLID_18_" style="fill:#1D262D;" d="M281.595,466.547c-0.295-0.116-0.806-0.309-1.382-0.237
				c-0.551,0.069-0.844,0.341-0.844,1.007v0.866h2.228v1.717h-2.228v5.455h-1.932v-5.455h-1.34v-1.717h1.34v-0.888
				c0-1.68,0.896-2.783,2.568-2.783c0.642,0,1.157,0.122,1.59,0.308L281.595,466.547z"/>
			<path id="XMLID_16_" style="fill:#1D262D;" d="M286.298,469.879c-0.177-0.03-0.358-0.046-0.526-0.046
				c-0.896,0-1.51,0.548-1.51,1.614v3.908h-1.932v-7.172h1.873v0.785c0.451-0.673,1.14-0.977,2.021-0.977
				c0.414,0,0.848,0.128,1.094,0.337L286.298,469.879z"/>
			<path id="XMLID_13_" style="fill:#1D262D;" d="M293.965,471.757c0,0.222-0.015,0.489-0.037,0.651h-5.085
				c0.207,1.036,0.933,1.488,1.843,1.488c0.622,0,1.295-0.252,1.813-0.688l1.132,1.243c-0.814,0.748-1.85,1.088-3.057,1.088
				c-2.198,0-3.723-1.495-3.723-3.753c0-2.258,1.48-3.797,3.627-3.797C292.544,467.99,293.958,469.522,293.965,471.757z
				 M288.851,471.091h3.175c-0.177-0.918-0.733-1.436-1.562-1.436C289.554,469.655,289.021,470.203,288.851,471.091z"/>
			<path id="XMLID_10_" style="fill:#1D262D;" d="M301.618,471.757c0,0.222-0.015,0.489-0.037,0.651h-5.085
				c0.207,1.036,0.932,1.488,1.843,1.488c0.622,0,1.295-0.252,1.813-0.688l1.132,1.243c-0.814,0.748-1.85,1.088-3.057,1.088
				c-2.198,0-3.723-1.495-3.723-3.753c0-2.258,1.48-3.797,3.627-3.797C300.197,467.99,301.611,469.522,301.618,471.757z
				 M296.504,471.091h3.175c-0.178-0.918-0.733-1.436-1.562-1.436C297.207,469.655,296.674,470.203,296.504,471.091z"/>
			<path id="XMLID_7_" style="fill:#1D262D;" d="M309.964,471.764c0,2.154-1.495,3.775-3.471,3.775
				c-0.962,0-1.643-0.378-2.109-0.933v3.708h-1.924v-10.133h1.887v0.792c0.466-0.585,1.155-0.984,2.139-0.984
				C308.469,467.99,309.964,469.61,309.964,471.764z M304.287,471.764c0,1.132,0.747,1.976,1.843,1.976
				c1.14,0,1.85-0.881,1.85-1.976c0-1.095-0.71-1.976-1.85-1.976C305.035,469.788,304.287,470.632,304.287,471.764z"/>
			<path id="XMLID_4_" style="fill:#1D262D;" d="M313.068,465.836c0,0.696-0.54,1.229-1.236,1.229c-0.696,0-1.229-0.533-1.229-1.229
				c0-0.696,0.533-1.243,1.229-1.243C312.527,464.592,313.068,465.14,313.068,465.836z M312.809,475.354h-1.932v-7.172h1.932
				V475.354z"/>
			<path id="XMLID_2_" style="fill:#1D262D;" d="M316.032,470.736l2.702-2.554h2.368l-3.479,3.375l3.501,3.797h-2.376l-2.716-2.901
				v2.901H314.1v-10.658h1.932V470.736z"/>
		</g>
		<g>
			<path style="fill:#1D262D;" d="M184.412,475.289v-1.055c-0.527,0.718-1.391,1.23-2.387,1.23c-1.846,0-3.149-1.406-3.149-3.706
				c0-2.256,1.289-3.721,3.149-3.721c0.952,0,1.816,0.469,2.387,1.245v-3.765h1.099v9.77H184.412z M184.412,473.37v-3.208
				c-0.395-0.615-1.245-1.143-2.124-1.143c-1.421,0-2.27,1.172-2.27,2.739c0,1.567,0.85,2.724,2.27,2.724
				C183.168,474.483,184.017,473.986,184.412,473.37z"/>
			<path style="fill:#1D262D;" d="M186.932,471.744c0-2.051,1.465-3.706,3.486-3.706c2.139,0,3.398,1.67,3.398,3.794v0.279h-5.727
				c0.088,1.333,1.025,2.446,2.549,2.446c0.805,0,1.626-0.322,2.182-0.894l0.527,0.718c-0.703,0.703-1.655,1.084-2.812,1.084
				C188.44,475.465,186.932,473.956,186.932,471.744z M190.403,468.947c-1.509,0-2.256,1.274-2.314,2.358h4.643
				C192.718,470.25,192.015,468.947,190.403,468.947z"/>
			<path style="fill:#1D262D;" d="M194.607,474.351l0.571-0.791c0.469,0.542,1.362,1.011,2.329,1.011c1.084,0,1.67-0.513,1.67-1.216
				c0-1.714-4.38-0.659-4.38-3.281c0-1.098,0.952-2.036,2.636-2.036c1.201,0,2.051,0.454,2.622,1.026l-0.513,0.762
				c-0.424-0.513-1.201-0.894-2.109-0.894c-0.967,0-1.567,0.483-1.567,1.113c0,1.552,4.38,0.527,4.38,3.281
				c0,1.187-0.952,2.138-2.783,2.138C196.306,475.465,195.325,475.113,194.607,474.351z"/>
			<path style="fill:#1D262D;" d="M201.477,466.471c0-0.41,0.337-0.747,0.732-0.747c0.41,0,0.747,0.337,0.747,0.747
				c0,0.41-0.337,0.732-0.747,0.732C201.814,467.203,201.477,466.881,201.477,466.471z M201.667,475.289v-7.075h1.099v7.075H201.667
				z"/>
			<path style="fill:#1D262D;" d="M204.582,477.105l0.556-0.82c0.586,0.703,1.289,0.967,2.3,0.967c1.172,0,2.27-0.571,2.27-2.124
				v-1.011c-0.513,0.718-1.377,1.26-2.373,1.26c-1.845,0-3.149-1.377-3.149-3.662c0-2.27,1.289-3.677,3.149-3.677
				c0.952,0,1.802,0.469,2.373,1.245v-1.069h1.098v6.87c0,2.344-1.641,3.076-3.369,3.076
				C206.237,478.16,205.417,477.926,204.582,477.105z M209.709,473.253v-3.091c-0.381-0.615-1.23-1.143-2.109-1.143
				c-1.421,0-2.27,1.128-2.27,2.695c0,1.553,0.849,2.695,2.27,2.695C208.478,474.41,209.328,473.868,209.709,473.253z"/>
			<path style="fill:#1D262D;" d="M217.413,475.289v-4.629c0-1.245-0.63-1.641-1.582-1.641c-0.865,0-1.685,0.527-2.095,1.099v5.17
				h-1.099v-7.075h1.099v1.025c0.498-0.586,1.464-1.201,2.519-1.201c1.48,0,2.256,0.747,2.256,2.285v4.966H217.413z"/>
			<path style="fill:#1D262D;" d="M219.932,471.744c0-2.051,1.465-3.706,3.486-3.706c2.139,0,3.398,1.67,3.398,3.794v0.279h-5.727
				c0.088,1.333,1.025,2.446,2.549,2.446c0.806,0,1.626-0.322,2.183-0.894l0.527,0.718c-0.703,0.703-1.655,1.084-2.812,1.084
				C221.441,475.465,219.932,473.956,219.932,471.744z M223.404,468.947c-1.509,0-2.256,1.274-2.314,2.358h4.643
				C225.718,470.25,225.015,468.947,223.404,468.947z"/>
			<path style="fill:#1D262D;" d="M233.35,475.289v-1.055c-0.527,0.718-1.392,1.23-2.388,1.23c-1.846,0-3.149-1.406-3.149-3.706
				c0-2.256,1.289-3.721,3.149-3.721c0.952,0,1.817,0.469,2.388,1.245v-3.765h1.098v9.77H233.35z M233.35,473.37v-3.208
				c-0.396-0.615-1.245-1.143-2.124-1.143c-1.421,0-2.27,1.172-2.27,2.739c0,1.567,0.849,2.724,2.27,2.724
				C232.105,474.483,232.954,473.986,233.35,473.37z"/>
			<path style="fill:#1D262D;" d="M239.692,475.289v-9.77h1.098v3.765c0.572-0.776,1.421-1.245,2.388-1.245
				c1.845,0,3.149,1.465,3.149,3.721c0,2.299-1.304,3.706-3.149,3.706c-0.996,0-1.86-0.513-2.388-1.23v1.055H239.692z
				 M242.9,474.483c1.436,0,2.285-1.157,2.285-2.724c0-1.568-0.85-2.739-2.285-2.739c-0.864,0-1.728,0.527-2.109,1.143v3.208
				C241.171,473.986,242.036,474.483,242.9,474.483z"/>
			<path style="fill:#1D262D;" d="M247.528,477.061c0.161,0.073,0.425,0.117,0.601,0.117c0.483,0,0.805-0.161,1.055-0.747
				l0.469-1.069l-2.959-7.148h1.187l2.358,5.8l2.344-5.8h1.201l-3.545,8.51c-0.425,1.025-1.143,1.421-2.08,1.435
				c-0.234,0-0.601-0.044-0.805-0.103L247.528,477.061z"/>
		</g>
	</g>
</g>
</svg>
